<mxfile host="app.diagrams.net" agent="Mozilla/5.0 (Windows NT 10.0; Win64; x64) AppleWebKit/537.36 (KHTML, like Gecko) Chrome/139.0.0.0 Safari/537.36" version="28.1.2" pages="4">
  <diagram name="Architecture" id="2NgHSKyz-wkEAecIFeep">
    <mxGraphModel dx="1940" dy="1127" grid="1" gridSize="10" guides="1" tooltips="1" connect="1" arrows="1" fold="1" page="1" pageScale="1" pageWidth="1169" pageHeight="827" math="0" shadow="0">
      <root>
        <mxCell id="0" />
        <mxCell id="1" parent="0" />
        <mxCell id="zMtODtbP7jWYDJz-JBEc-3" value="Application Server (PHP Laravel)" style="whiteSpace=wrap;strokeWidth=2;" vertex="1" parent="1">
          <mxGeometry x="380" y="262" width="1846" height="257" as="geometry" />
        </mxCell>
        <mxCell id="zMtODtbP7jWYDJz-JBEc-4" value="Client" style="whiteSpace=wrap;strokeWidth=2;" vertex="1" parent="1">
          <mxGeometry x="20" y="109" width="340" height="257" as="geometry" />
        </mxCell>
        <mxCell id="zMtODtbP7jWYDJz-JBEc-5" value="Learner" style="rounded=1;whiteSpace=wrap;arcSize=50;strokeWidth=2;" vertex="1" parent="1">
          <mxGeometry x="20" y="20" width="80" height="39" as="geometry" />
        </mxCell>
        <mxCell id="zMtODtbP7jWYDJz-JBEc-6" value="Instructor" style="rounded=1;whiteSpace=wrap;arcSize=50;strokeWidth=2;" vertex="1" parent="1">
          <mxGeometry x="150" y="20" width="95" height="39" as="geometry" />
        </mxCell>
        <mxCell id="zMtODtbP7jWYDJz-JBEc-7" value="Admin" style="rounded=1;whiteSpace=wrap;arcSize=50;strokeWidth=2;" vertex="1" parent="1">
          <mxGeometry x="300" y="20" width="70" height="39" as="geometry" />
        </mxCell>
        <mxCell id="zMtODtbP7jWYDJz-JBEc-8" value="Web UI &#xa; (HTML/CSS/JS + Bootstrap)" style="whiteSpace=wrap;strokeWidth=2;" vertex="1" parent="1">
          <mxGeometry x="62" y="134" width="255" height="78" as="geometry" />
        </mxCell>
        <mxCell id="zMtODtbP7jWYDJz-JBEc-9" value="SQL Query Editor" style="whiteSpace=wrap;strokeWidth=2;" vertex="1" parent="1">
          <mxGeometry x="73" y="287" width="181" height="54" as="geometry" />
        </mxCell>
        <mxCell id="zMtODtbP7jWYDJz-JBEc-10" value="API Gateway (REST/JSON)" style="whiteSpace=wrap;strokeWidth=2;" vertex="1" parent="1">
          <mxGeometry x="897" y="287" width="246" height="54" as="geometry" />
        </mxCell>
        <mxCell id="zMtODtbP7jWYDJz-JBEc-11" value="Auth &amp; Session Service" style="whiteSpace=wrap;strokeWidth=2;" vertex="1" parent="1">
          <mxGeometry x="421" y="428" width="222" height="54" as="geometry" />
        </mxCell>
        <mxCell id="zMtODtbP7jWYDJz-JBEc-12" value="Game Logic / Gamification Engine" style="whiteSpace=wrap;strokeWidth=2;" vertex="1" parent="1">
          <mxGeometry x="693" y="428" width="260" height="54" as="geometry" />
        </mxCell>
        <mxCell id="zMtODtbP7jWYDJz-JBEc-13" value="SQL Sandbox Controller" style="whiteSpace=wrap;strokeWidth=2;" vertex="1" parent="1">
          <mxGeometry x="1003" y="428" width="227" height="54" as="geometry" />
        </mxCell>
        <mxCell id="zMtODtbP7jWYDJz-JBEc-14" value="Hint &amp; Feedback Engine" style="whiteSpace=wrap;strokeWidth=2;" vertex="1" parent="1">
          <mxGeometry x="1280" y="428" width="231" height="54" as="geometry" />
        </mxCell>
        <mxCell id="zMtODtbP7jWYDJz-JBEc-15" value="Progress &amp; Analytics Service" style="whiteSpace=wrap;strokeWidth=2;" vertex="1" parent="1">
          <mxGeometry x="1561" y="428" width="260" height="54" as="geometry" />
        </mxCell>
        <mxCell id="zMtODtbP7jWYDJz-JBEc-16" value="LMS Integration Adapter" style="whiteSpace=wrap;strokeWidth=2;" vertex="1" parent="1">
          <mxGeometry x="1945" y="428" width="232" height="54" as="geometry" />
        </mxCell>
        <mxCell id="zMtODtbP7jWYDJz-JBEc-17" value="MySQL &#xa; Users, Progress, Leaderboards, Scenarios, Logs" style="shape=cylinder3;boundedLbl=1;backgroundOutline=1;size=10;strokeWidth=2;whiteSpace=wrap;" vertex="1" parent="1">
          <mxGeometry x="1063" y="569" width="215" height="110" as="geometry" />
        </mxCell>
        <mxCell id="zMtODtbP7jWYDJz-JBEc-20" value="Email / Notifications &#xa; (SMTP optional)" style="whiteSpace=wrap;strokeWidth=2;" vertex="1" parent="1">
          <mxGeometry x="2110" y="710" width="209" height="78" as="geometry" />
        </mxCell>
        <mxCell id="zMtODtbP7jWYDJz-JBEc-21" value="GitHub (Git) â€“ CI/CD &#xa; Build &amp;amp; Deploy" style="whiteSpace=wrap;strokeWidth=2;" vertex="1" parent="1">
          <mxGeometry x="1420" y="134" width="205" height="78" as="geometry" />
        </mxCell>
        <mxCell id="zMtODtbP7jWYDJz-JBEc-22" value="Note: Validates SQL, enforces safe commands, routes schema, supports reset" style="whiteSpace=wrap;strokeWidth=2;" vertex="1" parent="1">
          <mxGeometry x="1527" y="597" width="260" height="54" as="geometry" />
        </mxCell>
        <mxCell id="zMtODtbP7jWYDJz-JBEc-23" value="Note: Collects attempts, time-to-solve, errors, XP, completion" style="whiteSpace=wrap;strokeWidth=2;" vertex="1" parent="1">
          <mxGeometry x="1850" y="597" width="260" height="54" as="geometry" />
        </mxCell>
        <mxCell id="zMtODtbP7jWYDJz-JBEc-24" value="" style="curved=1;startArrow=none;endArrow=block;exitX=0.5;exitY=1;entryX=0.19;entryY=0;rounded=0;" edge="1" parent="1" source="zMtODtbP7jWYDJz-JBEc-5" target="zMtODtbP7jWYDJz-JBEc-8">
          <mxGeometry relative="1" as="geometry">
            <Array as="points">
              <mxPoint x="60" y="109" />
            </Array>
          </mxGeometry>
        </mxCell>
        <mxCell id="zMtODtbP7jWYDJz-JBEc-25" value="" style="curved=1;startArrow=none;endArrow=block;exitX=0.5;exitY=1;entryX=0.52;entryY=0;rounded=0;" edge="1" parent="1" source="zMtODtbP7jWYDJz-JBEc-6" target="zMtODtbP7jWYDJz-JBEc-8">
          <mxGeometry relative="1" as="geometry">
            <Array as="points">
              <mxPoint x="197" y="109" />
            </Array>
          </mxGeometry>
        </mxCell>
        <mxCell id="zMtODtbP7jWYDJz-JBEc-26" value="" style="curved=1;startArrow=none;endArrow=block;exitX=0.49;exitY=1;entryX=0.85;entryY=0;rounded=0;" edge="1" parent="1" source="zMtODtbP7jWYDJz-JBEc-7" target="zMtODtbP7jWYDJz-JBEc-8">
          <mxGeometry relative="1" as="geometry">
            <Array as="points">
              <mxPoint x="335" y="109" />
            </Array>
          </mxGeometry>
        </mxCell>
        <mxCell id="zMtODtbP7jWYDJz-JBEc-27" value="" style="curved=1;startArrow=none;endArrow=block;exitX=0.44;exitY=1;entryX=0.5;entryY=0;rounded=0;" edge="1" parent="1" source="zMtODtbP7jWYDJz-JBEc-8" target="zMtODtbP7jWYDJz-JBEc-9">
          <mxGeometry relative="1" as="geometry">
            <Array as="points">
              <mxPoint x="164" y="237" />
            </Array>
          </mxGeometry>
        </mxCell>
        <mxCell id="zMtODtbP7jWYDJz-JBEc-28" value="" style="curved=1;startArrow=none;endArrow=block;exitX=0.69;exitY=1;entryX=0;entryY=0.34;rounded=0;" edge="1" parent="1" source="zMtODtbP7jWYDJz-JBEc-8" target="zMtODtbP7jWYDJz-JBEc-10">
          <mxGeometry relative="1" as="geometry">
            <Array as="points">
              <mxPoint x="269" y="237" />
              <mxPoint x="269" y="262" />
            </Array>
          </mxGeometry>
        </mxCell>
        <mxCell id="zMtODtbP7jWYDJz-JBEc-29" value="" style="curved=1;startArrow=none;endArrow=block;exitX=0;exitY=0.74;entryX=0.5;entryY=0;rounded=0;" edge="1" parent="1" source="zMtODtbP7jWYDJz-JBEc-10" target="zMtODtbP7jWYDJz-JBEc-11">
          <mxGeometry relative="1" as="geometry">
            <Array as="points">
              <mxPoint x="532" y="366" />
            </Array>
          </mxGeometry>
        </mxCell>
        <mxCell id="zMtODtbP7jWYDJz-JBEc-30" value="" style="curved=1;startArrow=none;endArrow=block;exitX=0.08;exitY=1;entryX=0.5;entryY=0;rounded=0;" edge="1" parent="1" source="zMtODtbP7jWYDJz-JBEc-10" target="zMtODtbP7jWYDJz-JBEc-12">
          <mxGeometry relative="1" as="geometry">
            <Array as="points">
              <mxPoint x="823" y="366" />
            </Array>
          </mxGeometry>
        </mxCell>
        <mxCell id="zMtODtbP7jWYDJz-JBEc-31" value="" style="curved=1;startArrow=none;endArrow=block;exitX=0.7;exitY=1;entryX=0.5;entryY=0;rounded=0;" edge="1" parent="1" source="zMtODtbP7jWYDJz-JBEc-10" target="zMtODtbP7jWYDJz-JBEc-13">
          <mxGeometry relative="1" as="geometry">
            <Array as="points">
              <mxPoint x="1116" y="366" />
            </Array>
          </mxGeometry>
        </mxCell>
        <mxCell id="zMtODtbP7jWYDJz-JBEc-32" value="" style="curved=1;startArrow=none;endArrow=block;exitX=1;exitY=0.82;entryX=0.5;entryY=0;rounded=0;" edge="1" parent="1" source="zMtODtbP7jWYDJz-JBEc-10" target="zMtODtbP7jWYDJz-JBEc-14">
          <mxGeometry relative="1" as="geometry">
            <Array as="points">
              <mxPoint x="1396" y="366" />
            </Array>
          </mxGeometry>
        </mxCell>
        <mxCell id="zMtODtbP7jWYDJz-JBEc-33" value="" style="curved=1;startArrow=none;endArrow=block;exitX=1;exitY=0.68;entryX=0.5;entryY=0;rounded=0;" edge="1" parent="1" source="zMtODtbP7jWYDJz-JBEc-10" target="zMtODtbP7jWYDJz-JBEc-15">
          <mxGeometry relative="1" as="geometry">
            <Array as="points">
              <mxPoint x="1691" y="366" />
            </Array>
          </mxGeometry>
        </mxCell>
        <mxCell id="zMtODtbP7jWYDJz-JBEc-34" value="" style="curved=1;startArrow=none;endArrow=block;exitX=1;exitY=0.61;entryX=0.5;entryY=0;rounded=0;" edge="1" parent="1" source="zMtODtbP7jWYDJz-JBEc-10" target="zMtODtbP7jWYDJz-JBEc-16">
          <mxGeometry relative="1" as="geometry">
            <Array as="points">
              <mxPoint x="2061" y="366" />
            </Array>
          </mxGeometry>
        </mxCell>
        <mxCell id="zMtODtbP7jWYDJz-JBEc-35" value="" style="curved=1;startArrow=none;endArrow=block;exitX=0.5;exitY=1;entryX=0;entryY=0.38;rounded=0;" edge="1" parent="1" source="zMtODtbP7jWYDJz-JBEc-11" target="zMtODtbP7jWYDJz-JBEc-17">
          <mxGeometry relative="1" as="geometry">
            <Array as="points">
              <mxPoint x="532" y="544" />
            </Array>
          </mxGeometry>
        </mxCell>
        <mxCell id="zMtODtbP7jWYDJz-JBEc-36" value="" style="curved=1;startArrow=none;endArrow=block;exitX=0.48;exitY=1;entryX=0;entryY=0.28;rounded=0;" edge="1" parent="1" source="zMtODtbP7jWYDJz-JBEc-12" target="zMtODtbP7jWYDJz-JBEc-17">
          <mxGeometry relative="1" as="geometry">
            <Array as="points">
              <mxPoint x="813" y="519" />
              <mxPoint x="813" y="544" />
            </Array>
          </mxGeometry>
        </mxCell>
        <mxCell id="zMtODtbP7jWYDJz-JBEc-37" value="" style="curved=1;startArrow=none;endArrow=block;exitX=0.28;exitY=1;entryX=1;entryY=0.3;rounded=0;" edge="1" parent="1" source="zMtODtbP7jWYDJz-JBEc-15" target="zMtODtbP7jWYDJz-JBEc-17">
          <mxGeometry relative="1" as="geometry">
            <Array as="points">
              <mxPoint x="1553" y="519" />
              <mxPoint x="1553" y="544" />
            </Array>
          </mxGeometry>
        </mxCell>
        <mxCell id="zMtODtbP7jWYDJz-JBEc-42" value="" style="curved=1;startArrow=none;endArrow=block;exitX=1;exitY=0.61;entryX=0.438;entryY=0.065;rounded=0;entryDx=0;entryDy=0;entryPerimeter=0;" edge="1" parent="1" source="zMtODtbP7jWYDJz-JBEc-10" target="zMtODtbP7jWYDJz-JBEc-20">
          <mxGeometry relative="1" as="geometry">
            <Array as="points">
              <mxPoint x="2137" y="366" />
              <mxPoint x="2137" y="391" />
            </Array>
          </mxGeometry>
        </mxCell>
        <mxCell id="zMtODtbP7jWYDJz-JBEc-43" value="" style="curved=1;dashed=1;dashPattern=2 3;startArrow=none;endArrow=block;exitX=0;exitY=0.67;entryX=0.5;entryY=0;rounded=0;" edge="1" parent="1" source="zMtODtbP7jWYDJz-JBEc-21" target="zMtODtbP7jWYDJz-JBEc-10">
          <mxGeometry relative="1" as="geometry">
            <Array as="points">
              <mxPoint x="1020" y="237" />
            </Array>
          </mxGeometry>
        </mxCell>
        <mxCell id="zMtODtbP7jWYDJz-JBEc-44" value="" style="curved=1;dashed=1;dashPattern=2 3;startArrow=none;endArrow=block;exitX=1;exitY=0.59;entryX=1;entryY=0.44;rounded=0;" edge="1" parent="1" source="zMtODtbP7jWYDJz-JBEc-21" target="zMtODtbP7jWYDJz-JBEc-17">
          <mxGeometry relative="1" as="geometry">
            <Array as="points">
              <mxPoint x="1840" y="210" />
              <mxPoint x="2280" y="210" />
              <mxPoint x="2310" y="610" />
              <mxPoint x="2120" y="570" />
              <mxPoint x="1770" y="520" />
            </Array>
          </mxGeometry>
        </mxCell>
        <mxCell id="zMtODtbP7jWYDJz-JBEc-45" value="" style="curved=1;startArrow=none;endArrow=none;exitX=0.74;exitY=1;entryX=0;entryY=0.03;rounded=0;" edge="1" parent="1" source="zMtODtbP7jWYDJz-JBEc-13" target="zMtODtbP7jWYDJz-JBEc-22">
          <mxGeometry relative="1" as="geometry">
            <Array as="points">
              <mxPoint x="1246" y="519" />
              <mxPoint x="1246" y="544" />
            </Array>
          </mxGeometry>
        </mxCell>
        <mxCell id="zMtODtbP7jWYDJz-JBEc-46" value="" style="curved=1;startArrow=none;endArrow=none;exitX=0.6;exitY=1;entryX=0.2;entryY=0;rounded=0;" edge="1" parent="1" source="zMtODtbP7jWYDJz-JBEc-15" target="zMtODtbP7jWYDJz-JBEc-23">
          <mxGeometry relative="1" as="geometry">
            <Array as="points">
              <mxPoint x="1751" y="519" />
              <mxPoint x="1751" y="544" />
            </Array>
          </mxGeometry>
        </mxCell>
      </root>
    </mxGraphModel>
  </diagram>
  <diagram id="iisJniN1qqI2X5raLFQZ" name="ER">
    <mxGraphModel dx="3880" dy="2253" grid="1" gridSize="10" guides="1" tooltips="1" connect="1" arrows="1" fold="1" page="1" pageScale="1" pageWidth="1169" pageHeight="827" math="0" shadow="0">
      <root>
        <mxCell id="0" />
        <mxCell id="1" parent="0" />
        <mxCell id="GkfL3eOmTXCgE_zVLW1G-1" value="USERS" style="shape=table;startSize=25;container=1;collapsible=0;childLayout=tableLayout;fixedRows=1;rowLines=1;fontStyle=1;align=center;resizeLast=1;" vertex="1" parent="1">
          <mxGeometry x="708" y="50" width="213" height="214" as="geometry" />
        </mxCell>
        <mxCell id="GkfL3eOmTXCgE_zVLW1G-2" style="shape=tableRow;horizontal=0;startSize=0;swimlaneHead=0;swimlaneBody=0;fillColor=none;collapsible=0;dropTarget=0;points=[[0,0.5],[1,0.5]];portConstraint=eastwest;top=0;left=0;right=0;bottom=0;" vertex="1" parent="GkfL3eOmTXCgE_zVLW1G-1">
          <mxGeometry y="25" width="213" height="47" as="geometry" />
        </mxCell>
        <mxCell id="GkfL3eOmTXCgE_zVLW1G-3" value="bigint" style="shape=partialRectangle;connectable=0;fillColor=none;top=0;left=0;bottom=0;right=0;align=left;spacingLeft=2;overflow=hidden;fontSize=11;" vertex="1" parent="GkfL3eOmTXCgE_zVLW1G-2">
          <mxGeometry width="42" height="47" as="geometry">
            <mxRectangle width="42" height="47" as="alternateBounds" />
          </mxGeometry>
        </mxCell>
        <mxCell id="GkfL3eOmTXCgE_zVLW1G-4" value="id" style="shape=partialRectangle;connectable=0;fillColor=none;top=0;left=0;bottom=0;right=0;align=left;spacingLeft=2;overflow=hidden;fontSize=11;" vertex="1" parent="GkfL3eOmTXCgE_zVLW1G-2">
          <mxGeometry x="42" width="149" height="47" as="geometry">
            <mxRectangle width="149" height="47" as="alternateBounds" />
          </mxGeometry>
        </mxCell>
        <mxCell id="GkfL3eOmTXCgE_zVLW1G-5" value="PK" style="shape=partialRectangle;connectable=0;fillColor=none;top=0;left=0;bottom=0;right=0;align=left;spacingLeft=2;overflow=hidden;fontSize=11;" vertex="1" parent="GkfL3eOmTXCgE_zVLW1G-2">
          <mxGeometry x="191" width="22" height="47" as="geometry">
            <mxRectangle width="22" height="47" as="alternateBounds" />
          </mxGeometry>
        </mxCell>
        <mxCell id="GkfL3eOmTXCgE_zVLW1G-6" style="shape=tableRow;horizontal=0;startSize=0;swimlaneHead=0;swimlaneBody=0;fillColor=none;collapsible=0;dropTarget=0;points=[[0,0.5],[1,0.5]];portConstraint=eastwest;top=0;left=0;right=0;bottom=0;" vertex="1" parent="GkfL3eOmTXCgE_zVLW1G-1">
          <mxGeometry y="72" width="213" height="47" as="geometry" />
        </mxCell>
        <mxCell id="GkfL3eOmTXCgE_zVLW1G-7" value="varchar" style="shape=partialRectangle;connectable=0;fillColor=none;top=0;left=0;bottom=0;right=0;align=left;spacingLeft=2;overflow=hidden;fontSize=11;" vertex="1" parent="GkfL3eOmTXCgE_zVLW1G-6">
          <mxGeometry width="42" height="47" as="geometry">
            <mxRectangle width="42" height="47" as="alternateBounds" />
          </mxGeometry>
        </mxCell>
        <mxCell id="GkfL3eOmTXCgE_zVLW1G-8" value="name" style="shape=partialRectangle;connectable=0;fillColor=none;top=0;left=0;bottom=0;right=0;align=left;spacingLeft=2;overflow=hidden;fontSize=11;" vertex="1" parent="GkfL3eOmTXCgE_zVLW1G-6">
          <mxGeometry x="42" width="149" height="47" as="geometry">
            <mxRectangle width="149" height="47" as="alternateBounds" />
          </mxGeometry>
        </mxCell>
        <mxCell id="GkfL3eOmTXCgE_zVLW1G-9" value="" style="shape=partialRectangle;connectable=0;fillColor=none;top=0;left=0;bottom=0;right=0;align=left;spacingLeft=2;overflow=hidden;fontSize=11;" vertex="1" parent="GkfL3eOmTXCgE_zVLW1G-6">
          <mxGeometry x="191" width="22" height="47" as="geometry">
            <mxRectangle width="22" height="47" as="alternateBounds" />
          </mxGeometry>
        </mxCell>
        <mxCell id="GkfL3eOmTXCgE_zVLW1G-10" style="shape=tableRow;horizontal=0;startSize=0;swimlaneHead=0;swimlaneBody=0;fillColor=none;collapsible=0;dropTarget=0;points=[[0,0.5],[1,0.5]];portConstraint=eastwest;top=0;left=0;right=0;bottom=0;" vertex="1" parent="GkfL3eOmTXCgE_zVLW1G-1">
          <mxGeometry y="119" width="213" height="47" as="geometry" />
        </mxCell>
        <mxCell id="GkfL3eOmTXCgE_zVLW1G-11" value="varchar" style="shape=partialRectangle;connectable=0;fillColor=none;top=0;left=0;bottom=0;right=0;align=left;spacingLeft=2;overflow=hidden;fontSize=11;" vertex="1" parent="GkfL3eOmTXCgE_zVLW1G-10">
          <mxGeometry width="42" height="47" as="geometry">
            <mxRectangle width="42" height="47" as="alternateBounds" />
          </mxGeometry>
        </mxCell>
        <mxCell id="GkfL3eOmTXCgE_zVLW1G-12" value="email" style="shape=partialRectangle;connectable=0;fillColor=none;top=0;left=0;bottom=0;right=0;align=left;spacingLeft=2;overflow=hidden;fontSize=11;" vertex="1" parent="GkfL3eOmTXCgE_zVLW1G-10">
          <mxGeometry x="42" width="149" height="47" as="geometry">
            <mxRectangle width="149" height="47" as="alternateBounds" />
          </mxGeometry>
        </mxCell>
        <mxCell id="GkfL3eOmTXCgE_zVLW1G-13" value="" style="shape=partialRectangle;connectable=0;fillColor=none;top=0;left=0;bottom=0;right=0;align=left;spacingLeft=2;overflow=hidden;fontSize=11;" vertex="1" parent="GkfL3eOmTXCgE_zVLW1G-10">
          <mxGeometry x="191" width="22" height="47" as="geometry">
            <mxRectangle width="22" height="47" as="alternateBounds" />
          </mxGeometry>
        </mxCell>
        <mxCell id="GkfL3eOmTXCgE_zVLW1G-14" style="shape=tableRow;horizontal=0;startSize=0;swimlaneHead=0;swimlaneBody=0;fillColor=none;collapsible=0;dropTarget=0;points=[[0,0.5],[1,0.5]];portConstraint=eastwest;top=0;left=0;right=0;bottom=0;" vertex="1" parent="GkfL3eOmTXCgE_zVLW1G-1">
          <mxGeometry y="166" width="213" height="47" as="geometry" />
        </mxCell>
        <mxCell id="GkfL3eOmTXCgE_zVLW1G-15" value="varchar" style="shape=partialRectangle;connectable=0;fillColor=none;top=0;left=0;bottom=0;right=0;align=left;spacingLeft=2;overflow=hidden;fontSize=11;" vertex="1" parent="GkfL3eOmTXCgE_zVLW1G-14">
          <mxGeometry width="42" height="47" as="geometry">
            <mxRectangle width="42" height="47" as="alternateBounds" />
          </mxGeometry>
        </mxCell>
        <mxCell id="GkfL3eOmTXCgE_zVLW1G-16" value="password" style="shape=partialRectangle;connectable=0;fillColor=none;top=0;left=0;bottom=0;right=0;align=left;spacingLeft=2;overflow=hidden;fontSize=11;" vertex="1" parent="GkfL3eOmTXCgE_zVLW1G-14">
          <mxGeometry x="42" width="149" height="47" as="geometry">
            <mxRectangle width="149" height="47" as="alternateBounds" />
          </mxGeometry>
        </mxCell>
        <mxCell id="GkfL3eOmTXCgE_zVLW1G-17" value="" style="shape=partialRectangle;connectable=0;fillColor=none;top=0;left=0;bottom=0;right=0;align=left;spacingLeft=2;overflow=hidden;fontSize=11;" vertex="1" parent="GkfL3eOmTXCgE_zVLW1G-14">
          <mxGeometry x="191" width="22" height="47" as="geometry">
            <mxRectangle width="22" height="47" as="alternateBounds" />
          </mxGeometry>
        </mxCell>
        <mxCell id="GkfL3eOmTXCgE_zVLW1G-18" value="PLAYER_PROGRESS" style="shape=table;startSize=25;container=1;collapsible=0;childLayout=tableLayout;fixedRows=1;rowLines=1;fontStyle=1;align=center;resizeLast=1;" vertex="1" parent="1">
          <mxGeometry x="488" y="366" width="247" height="301" as="geometry" />
        </mxCell>
        <mxCell id="GkfL3eOmTXCgE_zVLW1G-19" style="shape=tableRow;horizontal=0;startSize=0;swimlaneHead=0;swimlaneBody=0;fillColor=none;collapsible=0;dropTarget=0;points=[[0,0.5],[1,0.5]];portConstraint=eastwest;top=0;left=0;right=0;bottom=0;" vertex="1" parent="GkfL3eOmTXCgE_zVLW1G-18">
          <mxGeometry y="25" width="247" height="46" as="geometry" />
        </mxCell>
        <mxCell id="GkfL3eOmTXCgE_zVLW1G-20" value="int" style="shape=partialRectangle;connectable=0;fillColor=none;top=0;left=0;bottom=0;right=0;align=left;spacingLeft=2;overflow=hidden;fontSize=11;" vertex="1" parent="GkfL3eOmTXCgE_zVLW1G-19">
          <mxGeometry width="36" height="46" as="geometry">
            <mxRectangle width="36" height="46" as="alternateBounds" />
          </mxGeometry>
        </mxCell>
        <mxCell id="GkfL3eOmTXCgE_zVLW1G-21" value="id" style="shape=partialRectangle;connectable=0;fillColor=none;top=0;left=0;bottom=0;right=0;align=left;spacingLeft=2;overflow=hidden;fontSize=11;" vertex="1" parent="GkfL3eOmTXCgE_zVLW1G-19">
          <mxGeometry x="36" width="189" height="46" as="geometry">
            <mxRectangle width="189" height="46" as="alternateBounds" />
          </mxGeometry>
        </mxCell>
        <mxCell id="GkfL3eOmTXCgE_zVLW1G-22" value="PK" style="shape=partialRectangle;connectable=0;fillColor=none;top=0;left=0;bottom=0;right=0;align=left;spacingLeft=2;overflow=hidden;fontSize=11;" vertex="1" parent="GkfL3eOmTXCgE_zVLW1G-19">
          <mxGeometry x="225" width="22" height="46" as="geometry">
            <mxRectangle width="22" height="46" as="alternateBounds" />
          </mxGeometry>
        </mxCell>
        <mxCell id="GkfL3eOmTXCgE_zVLW1G-23" style="shape=tableRow;horizontal=0;startSize=0;swimlaneHead=0;swimlaneBody=0;fillColor=none;collapsible=0;dropTarget=0;points=[[0,0.5],[1,0.5]];portConstraint=eastwest;top=0;left=0;right=0;bottom=0;" vertex="1" parent="GkfL3eOmTXCgE_zVLW1G-18">
          <mxGeometry y="71" width="247" height="46" as="geometry" />
        </mxCell>
        <mxCell id="GkfL3eOmTXCgE_zVLW1G-24" value="bigint" style="shape=partialRectangle;connectable=0;fillColor=none;top=0;left=0;bottom=0;right=0;align=left;spacingLeft=2;overflow=hidden;fontSize=11;" vertex="1" parent="GkfL3eOmTXCgE_zVLW1G-23">
          <mxGeometry width="36" height="46" as="geometry">
            <mxRectangle width="36" height="46" as="alternateBounds" />
          </mxGeometry>
        </mxCell>
        <mxCell id="GkfL3eOmTXCgE_zVLW1G-25" value="player_id" style="shape=partialRectangle;connectable=0;fillColor=none;top=0;left=0;bottom=0;right=0;align=left;spacingLeft=2;overflow=hidden;fontSize=11;" vertex="1" parent="GkfL3eOmTXCgE_zVLW1G-23">
          <mxGeometry x="36" width="189" height="46" as="geometry">
            <mxRectangle width="189" height="46" as="alternateBounds" />
          </mxGeometry>
        </mxCell>
        <mxCell id="GkfL3eOmTXCgE_zVLW1G-26" value="FK" style="shape=partialRectangle;connectable=0;fillColor=none;top=0;left=0;bottom=0;right=0;align=left;spacingLeft=2;overflow=hidden;fontSize=11;" vertex="1" parent="GkfL3eOmTXCgE_zVLW1G-23">
          <mxGeometry x="225" width="22" height="46" as="geometry">
            <mxRectangle width="22" height="46" as="alternateBounds" />
          </mxGeometry>
        </mxCell>
        <mxCell id="GkfL3eOmTXCgE_zVLW1G-27" style="shape=tableRow;horizontal=0;startSize=0;swimlaneHead=0;swimlaneBody=0;fillColor=none;collapsible=0;dropTarget=0;points=[[0,0.5],[1,0.5]];portConstraint=eastwest;top=0;left=0;right=0;bottom=0;" vertex="1" parent="GkfL3eOmTXCgE_zVLW1G-18">
          <mxGeometry y="117" width="247" height="46" as="geometry" />
        </mxCell>
        <mxCell id="GkfL3eOmTXCgE_zVLW1G-28" value="int" style="shape=partialRectangle;connectable=0;fillColor=none;top=0;left=0;bottom=0;right=0;align=left;spacingLeft=2;overflow=hidden;fontSize=11;" vertex="1" parent="GkfL3eOmTXCgE_zVLW1G-27">
          <mxGeometry width="36" height="46" as="geometry">
            <mxRectangle width="36" height="46" as="alternateBounds" />
          </mxGeometry>
        </mxCell>
        <mxCell id="GkfL3eOmTXCgE_zVLW1G-29" value="highest_level" style="shape=partialRectangle;connectable=0;fillColor=none;top=0;left=0;bottom=0;right=0;align=left;spacingLeft=2;overflow=hidden;fontSize=11;" vertex="1" parent="GkfL3eOmTXCgE_zVLW1G-27">
          <mxGeometry x="36" width="189" height="46" as="geometry">
            <mxRectangle width="189" height="46" as="alternateBounds" />
          </mxGeometry>
        </mxCell>
        <mxCell id="GkfL3eOmTXCgE_zVLW1G-30" value="" style="shape=partialRectangle;connectable=0;fillColor=none;top=0;left=0;bottom=0;right=0;align=left;spacingLeft=2;overflow=hidden;fontSize=11;" vertex="1" parent="GkfL3eOmTXCgE_zVLW1G-27">
          <mxGeometry x="225" width="22" height="46" as="geometry">
            <mxRectangle width="22" height="46" as="alternateBounds" />
          </mxGeometry>
        </mxCell>
        <mxCell id="GkfL3eOmTXCgE_zVLW1G-31" style="shape=tableRow;horizontal=0;startSize=0;swimlaneHead=0;swimlaneBody=0;fillColor=none;collapsible=0;dropTarget=0;points=[[0,0.5],[1,0.5]];portConstraint=eastwest;top=0;left=0;right=0;bottom=0;" vertex="1" parent="GkfL3eOmTXCgE_zVLW1G-18">
          <mxGeometry y="163" width="247" height="46" as="geometry" />
        </mxCell>
        <mxCell id="GkfL3eOmTXCgE_zVLW1G-32" value="int" style="shape=partialRectangle;connectable=0;fillColor=none;top=0;left=0;bottom=0;right=0;align=left;spacingLeft=2;overflow=hidden;fontSize=11;" vertex="1" parent="GkfL3eOmTXCgE_zVLW1G-31">
          <mxGeometry width="36" height="46" as="geometry">
            <mxRectangle width="36" height="46" as="alternateBounds" />
          </mxGeometry>
        </mxCell>
        <mxCell id="GkfL3eOmTXCgE_zVLW1G-33" value="current_level" style="shape=partialRectangle;connectable=0;fillColor=none;top=0;left=0;bottom=0;right=0;align=left;spacingLeft=2;overflow=hidden;fontSize=11;" vertex="1" parent="GkfL3eOmTXCgE_zVLW1G-31">
          <mxGeometry x="36" width="189" height="46" as="geometry">
            <mxRectangle width="189" height="46" as="alternateBounds" />
          </mxGeometry>
        </mxCell>
        <mxCell id="GkfL3eOmTXCgE_zVLW1G-34" value="" style="shape=partialRectangle;connectable=0;fillColor=none;top=0;left=0;bottom=0;right=0;align=left;spacingLeft=2;overflow=hidden;fontSize=11;" vertex="1" parent="GkfL3eOmTXCgE_zVLW1G-31">
          <mxGeometry x="225" width="22" height="46" as="geometry">
            <mxRectangle width="22" height="46" as="alternateBounds" />
          </mxGeometry>
        </mxCell>
        <mxCell id="GkfL3eOmTXCgE_zVLW1G-35" style="shape=tableRow;horizontal=0;startSize=0;swimlaneHead=0;swimlaneBody=0;fillColor=none;collapsible=0;dropTarget=0;points=[[0,0.5],[1,0.5]];portConstraint=eastwest;top=0;left=0;right=0;bottom=0;" vertex="1" parent="GkfL3eOmTXCgE_zVLW1G-18">
          <mxGeometry y="209" width="247" height="46" as="geometry" />
        </mxCell>
        <mxCell id="GkfL3eOmTXCgE_zVLW1G-36" value="int" style="shape=partialRectangle;connectable=0;fillColor=none;top=0;left=0;bottom=0;right=0;align=left;spacingLeft=2;overflow=hidden;fontSize=11;" vertex="1" parent="GkfL3eOmTXCgE_zVLW1G-35">
          <mxGeometry width="36" height="46" as="geometry">
            <mxRectangle width="36" height="46" as="alternateBounds" />
          </mxGeometry>
        </mxCell>
        <mxCell id="GkfL3eOmTXCgE_zVLW1G-37" value="current_task_id" style="shape=partialRectangle;connectable=0;fillColor=none;top=0;left=0;bottom=0;right=0;align=left;spacingLeft=2;overflow=hidden;fontSize=11;" vertex="1" parent="GkfL3eOmTXCgE_zVLW1G-35">
          <mxGeometry x="36" width="189" height="46" as="geometry">
            <mxRectangle width="189" height="46" as="alternateBounds" />
          </mxGeometry>
        </mxCell>
        <mxCell id="GkfL3eOmTXCgE_zVLW1G-38" value="" style="shape=partialRectangle;connectable=0;fillColor=none;top=0;left=0;bottom=0;right=0;align=left;spacingLeft=2;overflow=hidden;fontSize=11;" vertex="1" parent="GkfL3eOmTXCgE_zVLW1G-35">
          <mxGeometry x="225" width="22" height="46" as="geometry">
            <mxRectangle width="22" height="46" as="alternateBounds" />
          </mxGeometry>
        </mxCell>
        <mxCell id="GkfL3eOmTXCgE_zVLW1G-39" style="shape=tableRow;horizontal=0;startSize=0;swimlaneHead=0;swimlaneBody=0;fillColor=none;collapsible=0;dropTarget=0;points=[[0,0.5],[1,0.5]];portConstraint=eastwest;top=0;left=0;right=0;bottom=0;" vertex="1" parent="GkfL3eOmTXCgE_zVLW1G-18">
          <mxGeometry y="255" width="247" height="46" as="geometry" />
        </mxCell>
        <mxCell id="GkfL3eOmTXCgE_zVLW1G-40" value="int" style="shape=partialRectangle;connectable=0;fillColor=none;top=0;left=0;bottom=0;right=0;align=left;spacingLeft=2;overflow=hidden;fontSize=11;" vertex="1" parent="GkfL3eOmTXCgE_zVLW1G-39">
          <mxGeometry width="36" height="46" as="geometry">
            <mxRectangle width="36" height="46" as="alternateBounds" />
          </mxGeometry>
        </mxCell>
        <mxCell id="GkfL3eOmTXCgE_zVLW1G-41" value="attempts_left" style="shape=partialRectangle;connectable=0;fillColor=none;top=0;left=0;bottom=0;right=0;align=left;spacingLeft=2;overflow=hidden;fontSize=11;" vertex="1" parent="GkfL3eOmTXCgE_zVLW1G-39">
          <mxGeometry x="36" width="189" height="46" as="geometry">
            <mxRectangle width="189" height="46" as="alternateBounds" />
          </mxGeometry>
        </mxCell>
        <mxCell id="GkfL3eOmTXCgE_zVLW1G-42" value="" style="shape=partialRectangle;connectable=0;fillColor=none;top=0;left=0;bottom=0;right=0;align=left;spacingLeft=2;overflow=hidden;fontSize=11;" vertex="1" parent="GkfL3eOmTXCgE_zVLW1G-39">
          <mxGeometry x="225" width="22" height="46" as="geometry">
            <mxRectangle width="22" height="46" as="alternateBounds" />
          </mxGeometry>
        </mxCell>
        <mxCell id="GkfL3eOmTXCgE_zVLW1G-43" value="ACHIEVEMENTS" style="shape=table;startSize=25;container=1;collapsible=0;childLayout=tableLayout;fixedRows=1;rowLines=1;fontStyle=1;align=center;resizeLast=1;" vertex="1" parent="1">
          <mxGeometry x="942" y="810" width="241" height="214" as="geometry" />
        </mxCell>
        <mxCell id="GkfL3eOmTXCgE_zVLW1G-44" style="shape=tableRow;horizontal=0;startSize=0;swimlaneHead=0;swimlaneBody=0;fillColor=none;collapsible=0;dropTarget=0;points=[[0,0.5],[1,0.5]];portConstraint=eastwest;top=0;left=0;right=0;bottom=0;" vertex="1" parent="GkfL3eOmTXCgE_zVLW1G-43">
          <mxGeometry y="25" width="241" height="47" as="geometry" />
        </mxCell>
        <mxCell id="GkfL3eOmTXCgE_zVLW1G-45" value="int" style="shape=partialRectangle;connectable=0;fillColor=none;top=0;left=0;bottom=0;right=0;align=left;spacingLeft=2;overflow=hidden;fontSize=11;" vertex="1" parent="GkfL3eOmTXCgE_zVLW1G-44">
          <mxGeometry width="42" height="47" as="geometry">
            <mxRectangle width="42" height="47" as="alternateBounds" />
          </mxGeometry>
        </mxCell>
        <mxCell id="GkfL3eOmTXCgE_zVLW1G-46" value="id" style="shape=partialRectangle;connectable=0;fillColor=none;top=0;left=0;bottom=0;right=0;align=left;spacingLeft=2;overflow=hidden;fontSize=11;" vertex="1" parent="GkfL3eOmTXCgE_zVLW1G-44">
          <mxGeometry x="42" width="177" height="47" as="geometry">
            <mxRectangle width="177" height="47" as="alternateBounds" />
          </mxGeometry>
        </mxCell>
        <mxCell id="GkfL3eOmTXCgE_zVLW1G-47" value="PK" style="shape=partialRectangle;connectable=0;fillColor=none;top=0;left=0;bottom=0;right=0;align=left;spacingLeft=2;overflow=hidden;fontSize=11;" vertex="1" parent="GkfL3eOmTXCgE_zVLW1G-44">
          <mxGeometry x="219" width="22" height="47" as="geometry">
            <mxRectangle width="22" height="47" as="alternateBounds" />
          </mxGeometry>
        </mxCell>
        <mxCell id="GkfL3eOmTXCgE_zVLW1G-48" style="shape=tableRow;horizontal=0;startSize=0;swimlaneHead=0;swimlaneBody=0;fillColor=none;collapsible=0;dropTarget=0;points=[[0,0.5],[1,0.5]];portConstraint=eastwest;top=0;left=0;right=0;bottom=0;" vertex="1" parent="GkfL3eOmTXCgE_zVLW1G-43">
          <mxGeometry y="72" width="241" height="47" as="geometry" />
        </mxCell>
        <mxCell id="GkfL3eOmTXCgE_zVLW1G-49" value="varchar" style="shape=partialRectangle;connectable=0;fillColor=none;top=0;left=0;bottom=0;right=0;align=left;spacingLeft=2;overflow=hidden;fontSize=11;" vertex="1" parent="GkfL3eOmTXCgE_zVLW1G-48">
          <mxGeometry width="42" height="47" as="geometry">
            <mxRectangle width="42" height="47" as="alternateBounds" />
          </mxGeometry>
        </mxCell>
        <mxCell id="GkfL3eOmTXCgE_zVLW1G-50" value="name" style="shape=partialRectangle;connectable=0;fillColor=none;top=0;left=0;bottom=0;right=0;align=left;spacingLeft=2;overflow=hidden;fontSize=11;" vertex="1" parent="GkfL3eOmTXCgE_zVLW1G-48">
          <mxGeometry x="42" width="177" height="47" as="geometry">
            <mxRectangle width="177" height="47" as="alternateBounds" />
          </mxGeometry>
        </mxCell>
        <mxCell id="GkfL3eOmTXCgE_zVLW1G-51" value="" style="shape=partialRectangle;connectable=0;fillColor=none;top=0;left=0;bottom=0;right=0;align=left;spacingLeft=2;overflow=hidden;fontSize=11;" vertex="1" parent="GkfL3eOmTXCgE_zVLW1G-48">
          <mxGeometry x="219" width="22" height="47" as="geometry">
            <mxRectangle width="22" height="47" as="alternateBounds" />
          </mxGeometry>
        </mxCell>
        <mxCell id="GkfL3eOmTXCgE_zVLW1G-52" style="shape=tableRow;horizontal=0;startSize=0;swimlaneHead=0;swimlaneBody=0;fillColor=none;collapsible=0;dropTarget=0;points=[[0,0.5],[1,0.5]];portConstraint=eastwest;top=0;left=0;right=0;bottom=0;" vertex="1" parent="GkfL3eOmTXCgE_zVLW1G-43">
          <mxGeometry y="119" width="241" height="47" as="geometry" />
        </mxCell>
        <mxCell id="GkfL3eOmTXCgE_zVLW1G-53" value="text" style="shape=partialRectangle;connectable=0;fillColor=none;top=0;left=0;bottom=0;right=0;align=left;spacingLeft=2;overflow=hidden;fontSize=11;" vertex="1" parent="GkfL3eOmTXCgE_zVLW1G-52">
          <mxGeometry width="42" height="47" as="geometry">
            <mxRectangle width="42" height="47" as="alternateBounds" />
          </mxGeometry>
        </mxCell>
        <mxCell id="GkfL3eOmTXCgE_zVLW1G-54" value="description" style="shape=partialRectangle;connectable=0;fillColor=none;top=0;left=0;bottom=0;right=0;align=left;spacingLeft=2;overflow=hidden;fontSize=11;" vertex="1" parent="GkfL3eOmTXCgE_zVLW1G-52">
          <mxGeometry x="42" width="177" height="47" as="geometry">
            <mxRectangle width="177" height="47" as="alternateBounds" />
          </mxGeometry>
        </mxCell>
        <mxCell id="GkfL3eOmTXCgE_zVLW1G-55" value="" style="shape=partialRectangle;connectable=0;fillColor=none;top=0;left=0;bottom=0;right=0;align=left;spacingLeft=2;overflow=hidden;fontSize=11;" vertex="1" parent="GkfL3eOmTXCgE_zVLW1G-52">
          <mxGeometry x="219" width="22" height="47" as="geometry">
            <mxRectangle width="22" height="47" as="alternateBounds" />
          </mxGeometry>
        </mxCell>
        <mxCell id="GkfL3eOmTXCgE_zVLW1G-56" style="shape=tableRow;horizontal=0;startSize=0;swimlaneHead=0;swimlaneBody=0;fillColor=none;collapsible=0;dropTarget=0;points=[[0,0.5],[1,0.5]];portConstraint=eastwest;top=0;left=0;right=0;bottom=0;" vertex="1" parent="GkfL3eOmTXCgE_zVLW1G-43">
          <mxGeometry y="166" width="241" height="47" as="geometry" />
        </mxCell>
        <mxCell id="GkfL3eOmTXCgE_zVLW1G-57" value="varchar" style="shape=partialRectangle;connectable=0;fillColor=none;top=0;left=0;bottom=0;right=0;align=left;spacingLeft=2;overflow=hidden;fontSize=11;" vertex="1" parent="GkfL3eOmTXCgE_zVLW1G-56">
          <mxGeometry width="42" height="47" as="geometry">
            <mxRectangle width="42" height="47" as="alternateBounds" />
          </mxGeometry>
        </mxCell>
        <mxCell id="GkfL3eOmTXCgE_zVLW1G-58" value="badge_image" style="shape=partialRectangle;connectable=0;fillColor=none;top=0;left=0;bottom=0;right=0;align=left;spacingLeft=2;overflow=hidden;fontSize=11;" vertex="1" parent="GkfL3eOmTXCgE_zVLW1G-56">
          <mxGeometry x="42" width="177" height="47" as="geometry">
            <mxRectangle width="177" height="47" as="alternateBounds" />
          </mxGeometry>
        </mxCell>
        <mxCell id="GkfL3eOmTXCgE_zVLW1G-59" value="" style="shape=partialRectangle;connectable=0;fillColor=none;top=0;left=0;bottom=0;right=0;align=left;spacingLeft=2;overflow=hidden;fontSize=11;" vertex="1" parent="GkfL3eOmTXCgE_zVLW1G-56">
          <mxGeometry x="219" width="22" height="47" as="geometry">
            <mxRectangle width="22" height="47" as="alternateBounds" />
          </mxGeometry>
        </mxCell>
        <mxCell id="GkfL3eOmTXCgE_zVLW1G-60" value="PLAYER_ACHIEVEMENTS" style="shape=table;startSize=25;container=1;collapsible=0;childLayout=tableLayout;fixedRows=1;rowLines=1;fontStyle=1;align=center;resizeLast=1;" vertex="1" parent="1">
          <mxGeometry x="921" y="409" width="283" height="214" as="geometry" />
        </mxCell>
        <mxCell id="GkfL3eOmTXCgE_zVLW1G-61" style="shape=tableRow;horizontal=0;startSize=0;swimlaneHead=0;swimlaneBody=0;fillColor=none;collapsible=0;dropTarget=0;points=[[0,0.5],[1,0.5]];portConstraint=eastwest;top=0;left=0;right=0;bottom=0;" vertex="1" parent="GkfL3eOmTXCgE_zVLW1G-60">
          <mxGeometry y="25" width="283" height="47" as="geometry" />
        </mxCell>
        <mxCell id="GkfL3eOmTXCgE_zVLW1G-62" value="int" style="shape=partialRectangle;connectable=0;fillColor=none;top=0;left=0;bottom=0;right=0;align=left;spacingLeft=2;overflow=hidden;fontSize=11;" vertex="1" parent="GkfL3eOmTXCgE_zVLW1G-61">
          <mxGeometry width="54" height="47" as="geometry">
            <mxRectangle width="54" height="47" as="alternateBounds" />
          </mxGeometry>
        </mxCell>
        <mxCell id="GkfL3eOmTXCgE_zVLW1G-63" value="id" style="shape=partialRectangle;connectable=0;fillColor=none;top=0;left=0;bottom=0;right=0;align=left;spacingLeft=2;overflow=hidden;fontSize=11;" vertex="1" parent="GkfL3eOmTXCgE_zVLW1G-61">
          <mxGeometry x="54" width="207" height="47" as="geometry">
            <mxRectangle width="207" height="47" as="alternateBounds" />
          </mxGeometry>
        </mxCell>
        <mxCell id="GkfL3eOmTXCgE_zVLW1G-64" value="PK" style="shape=partialRectangle;connectable=0;fillColor=none;top=0;left=0;bottom=0;right=0;align=left;spacingLeft=2;overflow=hidden;fontSize=11;" vertex="1" parent="GkfL3eOmTXCgE_zVLW1G-61">
          <mxGeometry x="261" width="22" height="47" as="geometry">
            <mxRectangle width="22" height="47" as="alternateBounds" />
          </mxGeometry>
        </mxCell>
        <mxCell id="GkfL3eOmTXCgE_zVLW1G-65" style="shape=tableRow;horizontal=0;startSize=0;swimlaneHead=0;swimlaneBody=0;fillColor=none;collapsible=0;dropTarget=0;points=[[0,0.5],[1,0.5]];portConstraint=eastwest;top=0;left=0;right=0;bottom=0;" vertex="1" parent="GkfL3eOmTXCgE_zVLW1G-60">
          <mxGeometry y="72" width="283" height="47" as="geometry" />
        </mxCell>
        <mxCell id="GkfL3eOmTXCgE_zVLW1G-66" value="bigint" style="shape=partialRectangle;connectable=0;fillColor=none;top=0;left=0;bottom=0;right=0;align=left;spacingLeft=2;overflow=hidden;fontSize=11;" vertex="1" parent="GkfL3eOmTXCgE_zVLW1G-65">
          <mxGeometry width="54" height="47" as="geometry">
            <mxRectangle width="54" height="47" as="alternateBounds" />
          </mxGeometry>
        </mxCell>
        <mxCell id="GkfL3eOmTXCgE_zVLW1G-67" value="user_id" style="shape=partialRectangle;connectable=0;fillColor=none;top=0;left=0;bottom=0;right=0;align=left;spacingLeft=2;overflow=hidden;fontSize=11;" vertex="1" parent="GkfL3eOmTXCgE_zVLW1G-65">
          <mxGeometry x="54" width="207" height="47" as="geometry">
            <mxRectangle width="207" height="47" as="alternateBounds" />
          </mxGeometry>
        </mxCell>
        <mxCell id="GkfL3eOmTXCgE_zVLW1G-68" value="FK" style="shape=partialRectangle;connectable=0;fillColor=none;top=0;left=0;bottom=0;right=0;align=left;spacingLeft=2;overflow=hidden;fontSize=11;" vertex="1" parent="GkfL3eOmTXCgE_zVLW1G-65">
          <mxGeometry x="261" width="22" height="47" as="geometry">
            <mxRectangle width="22" height="47" as="alternateBounds" />
          </mxGeometry>
        </mxCell>
        <mxCell id="GkfL3eOmTXCgE_zVLW1G-69" style="shape=tableRow;horizontal=0;startSize=0;swimlaneHead=0;swimlaneBody=0;fillColor=none;collapsible=0;dropTarget=0;points=[[0,0.5],[1,0.5]];portConstraint=eastwest;top=0;left=0;right=0;bottom=0;" vertex="1" parent="GkfL3eOmTXCgE_zVLW1G-60">
          <mxGeometry y="119" width="283" height="47" as="geometry" />
        </mxCell>
        <mxCell id="GkfL3eOmTXCgE_zVLW1G-70" value="int" style="shape=partialRectangle;connectable=0;fillColor=none;top=0;left=0;bottom=0;right=0;align=left;spacingLeft=2;overflow=hidden;fontSize=11;" vertex="1" parent="GkfL3eOmTXCgE_zVLW1G-69">
          <mxGeometry width="54" height="47" as="geometry">
            <mxRectangle width="54" height="47" as="alternateBounds" />
          </mxGeometry>
        </mxCell>
        <mxCell id="GkfL3eOmTXCgE_zVLW1G-71" value="achievement_id" style="shape=partialRectangle;connectable=0;fillColor=none;top=0;left=0;bottom=0;right=0;align=left;spacingLeft=2;overflow=hidden;fontSize=11;" vertex="1" parent="GkfL3eOmTXCgE_zVLW1G-69">
          <mxGeometry x="54" width="207" height="47" as="geometry">
            <mxRectangle width="207" height="47" as="alternateBounds" />
          </mxGeometry>
        </mxCell>
        <mxCell id="GkfL3eOmTXCgE_zVLW1G-72" value="FK" style="shape=partialRectangle;connectable=0;fillColor=none;top=0;left=0;bottom=0;right=0;align=left;spacingLeft=2;overflow=hidden;fontSize=11;" vertex="1" parent="GkfL3eOmTXCgE_zVLW1G-69">
          <mxGeometry x="261" width="22" height="47" as="geometry">
            <mxRectangle width="22" height="47" as="alternateBounds" />
          </mxGeometry>
        </mxCell>
        <mxCell id="GkfL3eOmTXCgE_zVLW1G-73" style="shape=tableRow;horizontal=0;startSize=0;swimlaneHead=0;swimlaneBody=0;fillColor=none;collapsible=0;dropTarget=0;points=[[0,0.5],[1,0.5]];portConstraint=eastwest;top=0;left=0;right=0;bottom=0;" vertex="1" parent="GkfL3eOmTXCgE_zVLW1G-60">
          <mxGeometry y="166" width="283" height="47" as="geometry" />
        </mxCell>
        <mxCell id="GkfL3eOmTXCgE_zVLW1G-74" value="timestamp" style="shape=partialRectangle;connectable=0;fillColor=none;top=0;left=0;bottom=0;right=0;align=left;spacingLeft=2;overflow=hidden;fontSize=11;" vertex="1" parent="GkfL3eOmTXCgE_zVLW1G-73">
          <mxGeometry width="54" height="47" as="geometry">
            <mxRectangle width="54" height="47" as="alternateBounds" />
          </mxGeometry>
        </mxCell>
        <mxCell id="GkfL3eOmTXCgE_zVLW1G-75" value="earned_at" style="shape=partialRectangle;connectable=0;fillColor=none;top=0;left=0;bottom=0;right=0;align=left;spacingLeft=2;overflow=hidden;fontSize=11;" vertex="1" parent="GkfL3eOmTXCgE_zVLW1G-73">
          <mxGeometry x="54" width="207" height="47" as="geometry">
            <mxRectangle width="207" height="47" as="alternateBounds" />
          </mxGeometry>
        </mxCell>
        <mxCell id="GkfL3eOmTXCgE_zVLW1G-76" value="" style="shape=partialRectangle;connectable=0;fillColor=none;top=0;left=0;bottom=0;right=0;align=left;spacingLeft=2;overflow=hidden;fontSize=11;" vertex="1" parent="GkfL3eOmTXCgE_zVLW1G-73">
          <mxGeometry x="261" width="22" height="47" as="geometry">
            <mxRectangle width="22" height="47" as="alternateBounds" />
          </mxGeometry>
        </mxCell>
        <mxCell id="GkfL3eOmTXCgE_zVLW1G-77" value="LEVELS" style="shape=table;startSize=25;container=1;collapsible=0;childLayout=tableLayout;fixedRows=1;rowLines=1;fontStyle=1;align=center;resizeLast=1;" vertex="1" parent="1">
          <mxGeometry x="360" y="767" width="251" height="301" as="geometry" />
        </mxCell>
        <mxCell id="GkfL3eOmTXCgE_zVLW1G-78" style="shape=tableRow;horizontal=0;startSize=0;swimlaneHead=0;swimlaneBody=0;fillColor=none;collapsible=0;dropTarget=0;points=[[0,0.5],[1,0.5]];portConstraint=eastwest;top=0;left=0;right=0;bottom=0;" vertex="1" parent="GkfL3eOmTXCgE_zVLW1G-77">
          <mxGeometry y="25" width="251" height="46" as="geometry" />
        </mxCell>
        <mxCell id="GkfL3eOmTXCgE_zVLW1G-79" value="int" style="shape=partialRectangle;connectable=0;fillColor=none;top=0;left=0;bottom=0;right=0;align=left;spacingLeft=2;overflow=hidden;fontSize=11;" vertex="1" parent="GkfL3eOmTXCgE_zVLW1G-78">
          <mxGeometry width="42" height="46" as="geometry">
            <mxRectangle width="42" height="46" as="alternateBounds" />
          </mxGeometry>
        </mxCell>
        <mxCell id="GkfL3eOmTXCgE_zVLW1G-80" value="id" style="shape=partialRectangle;connectable=0;fillColor=none;top=0;left=0;bottom=0;right=0;align=left;spacingLeft=2;overflow=hidden;fontSize=11;" vertex="1" parent="GkfL3eOmTXCgE_zVLW1G-78">
          <mxGeometry x="42" width="187" height="46" as="geometry">
            <mxRectangle width="187" height="46" as="alternateBounds" />
          </mxGeometry>
        </mxCell>
        <mxCell id="GkfL3eOmTXCgE_zVLW1G-81" value="PK" style="shape=partialRectangle;connectable=0;fillColor=none;top=0;left=0;bottom=0;right=0;align=left;spacingLeft=2;overflow=hidden;fontSize=11;" vertex="1" parent="GkfL3eOmTXCgE_zVLW1G-78">
          <mxGeometry x="229" width="22" height="46" as="geometry">
            <mxRectangle width="22" height="46" as="alternateBounds" />
          </mxGeometry>
        </mxCell>
        <mxCell id="GkfL3eOmTXCgE_zVLW1G-82" style="shape=tableRow;horizontal=0;startSize=0;swimlaneHead=0;swimlaneBody=0;fillColor=none;collapsible=0;dropTarget=0;points=[[0,0.5],[1,0.5]];portConstraint=eastwest;top=0;left=0;right=0;bottom=0;" vertex="1" parent="GkfL3eOmTXCgE_zVLW1G-77">
          <mxGeometry y="71" width="251" height="46" as="geometry" />
        </mxCell>
        <mxCell id="GkfL3eOmTXCgE_zVLW1G-83" value="varchar" style="shape=partialRectangle;connectable=0;fillColor=none;top=0;left=0;bottom=0;right=0;align=left;spacingLeft=2;overflow=hidden;fontSize=11;" vertex="1" parent="GkfL3eOmTXCgE_zVLW1G-82">
          <mxGeometry width="42" height="46" as="geometry">
            <mxRectangle width="42" height="46" as="alternateBounds" />
          </mxGeometry>
        </mxCell>
        <mxCell id="GkfL3eOmTXCgE_zVLW1G-84" value="province" style="shape=partialRectangle;connectable=0;fillColor=none;top=0;left=0;bottom=0;right=0;align=left;spacingLeft=2;overflow=hidden;fontSize=11;" vertex="1" parent="GkfL3eOmTXCgE_zVLW1G-82">
          <mxGeometry x="42" width="187" height="46" as="geometry">
            <mxRectangle width="187" height="46" as="alternateBounds" />
          </mxGeometry>
        </mxCell>
        <mxCell id="GkfL3eOmTXCgE_zVLW1G-85" value="" style="shape=partialRectangle;connectable=0;fillColor=none;top=0;left=0;bottom=0;right=0;align=left;spacingLeft=2;overflow=hidden;fontSize=11;" vertex="1" parent="GkfL3eOmTXCgE_zVLW1G-82">
          <mxGeometry x="229" width="22" height="46" as="geometry">
            <mxRectangle width="22" height="46" as="alternateBounds" />
          </mxGeometry>
        </mxCell>
        <mxCell id="GkfL3eOmTXCgE_zVLW1G-86" style="shape=tableRow;horizontal=0;startSize=0;swimlaneHead=0;swimlaneBody=0;fillColor=none;collapsible=0;dropTarget=0;points=[[0,0.5],[1,0.5]];portConstraint=eastwest;top=0;left=0;right=0;bottom=0;" vertex="1" parent="GkfL3eOmTXCgE_zVLW1G-77">
          <mxGeometry y="117" width="251" height="46" as="geometry" />
        </mxCell>
        <mxCell id="GkfL3eOmTXCgE_zVLW1G-87" value="text" style="shape=partialRectangle;connectable=0;fillColor=none;top=0;left=0;bottom=0;right=0;align=left;spacingLeft=2;overflow=hidden;fontSize=11;" vertex="1" parent="GkfL3eOmTXCgE_zVLW1G-86">
          <mxGeometry width="42" height="46" as="geometry">
            <mxRectangle width="42" height="46" as="alternateBounds" />
          </mxGeometry>
        </mxCell>
        <mxCell id="GkfL3eOmTXCgE_zVLW1G-88" value="story" style="shape=partialRectangle;connectable=0;fillColor=none;top=0;left=0;bottom=0;right=0;align=left;spacingLeft=2;overflow=hidden;fontSize=11;" vertex="1" parent="GkfL3eOmTXCgE_zVLW1G-86">
          <mxGeometry x="42" width="187" height="46" as="geometry">
            <mxRectangle width="187" height="46" as="alternateBounds" />
          </mxGeometry>
        </mxCell>
        <mxCell id="GkfL3eOmTXCgE_zVLW1G-89" value="" style="shape=partialRectangle;connectable=0;fillColor=none;top=0;left=0;bottom=0;right=0;align=left;spacingLeft=2;overflow=hidden;fontSize=11;" vertex="1" parent="GkfL3eOmTXCgE_zVLW1G-86">
          <mxGeometry x="229" width="22" height="46" as="geometry">
            <mxRectangle width="22" height="46" as="alternateBounds" />
          </mxGeometry>
        </mxCell>
        <mxCell id="GkfL3eOmTXCgE_zVLW1G-90" style="shape=tableRow;horizontal=0;startSize=0;swimlaneHead=0;swimlaneBody=0;fillColor=none;collapsible=0;dropTarget=0;points=[[0,0.5],[1,0.5]];portConstraint=eastwest;top=0;left=0;right=0;bottom=0;" vertex="1" parent="GkfL3eOmTXCgE_zVLW1G-77">
          <mxGeometry y="163" width="251" height="46" as="geometry" />
        </mxCell>
        <mxCell id="GkfL3eOmTXCgE_zVLW1G-91" value="text" style="shape=partialRectangle;connectable=0;fillColor=none;top=0;left=0;bottom=0;right=0;align=left;spacingLeft=2;overflow=hidden;fontSize=11;" vertex="1" parent="GkfL3eOmTXCgE_zVLW1G-90">
          <mxGeometry width="42" height="46" as="geometry">
            <mxRectangle width="42" height="46" as="alternateBounds" />
          </mxGeometry>
        </mxCell>
        <mxCell id="GkfL3eOmTXCgE_zVLW1G-92" value="dialogue" style="shape=partialRectangle;connectable=0;fillColor=none;top=0;left=0;bottom=0;right=0;align=left;spacingLeft=2;overflow=hidden;fontSize=11;" vertex="1" parent="GkfL3eOmTXCgE_zVLW1G-90">
          <mxGeometry x="42" width="187" height="46" as="geometry">
            <mxRectangle width="187" height="46" as="alternateBounds" />
          </mxGeometry>
        </mxCell>
        <mxCell id="GkfL3eOmTXCgE_zVLW1G-93" value="" style="shape=partialRectangle;connectable=0;fillColor=none;top=0;left=0;bottom=0;right=0;align=left;spacingLeft=2;overflow=hidden;fontSize=11;" vertex="1" parent="GkfL3eOmTXCgE_zVLW1G-90">
          <mxGeometry x="229" width="22" height="46" as="geometry">
            <mxRectangle width="22" height="46" as="alternateBounds" />
          </mxGeometry>
        </mxCell>
        <mxCell id="GkfL3eOmTXCgE_zVLW1G-94" style="shape=tableRow;horizontal=0;startSize=0;swimlaneHead=0;swimlaneBody=0;fillColor=none;collapsible=0;dropTarget=0;points=[[0,0.5],[1,0.5]];portConstraint=eastwest;top=0;left=0;right=0;bottom=0;" vertex="1" parent="GkfL3eOmTXCgE_zVLW1G-77">
          <mxGeometry y="209" width="251" height="46" as="geometry" />
        </mxCell>
        <mxCell id="GkfL3eOmTXCgE_zVLW1G-95" value="varchar" style="shape=partialRectangle;connectable=0;fillColor=none;top=0;left=0;bottom=0;right=0;align=left;spacingLeft=2;overflow=hidden;fontSize=11;" vertex="1" parent="GkfL3eOmTXCgE_zVLW1G-94">
          <mxGeometry width="42" height="46" as="geometry">
            <mxRectangle width="42" height="46" as="alternateBounds" />
          </mxGeometry>
        </mxCell>
        <mxCell id="GkfL3eOmTXCgE_zVLW1G-96" value="reward" style="shape=partialRectangle;connectable=0;fillColor=none;top=0;left=0;bottom=0;right=0;align=left;spacingLeft=2;overflow=hidden;fontSize=11;" vertex="1" parent="GkfL3eOmTXCgE_zVLW1G-94">
          <mxGeometry x="42" width="187" height="46" as="geometry">
            <mxRectangle width="187" height="46" as="alternateBounds" />
          </mxGeometry>
        </mxCell>
        <mxCell id="GkfL3eOmTXCgE_zVLW1G-97" value="" style="shape=partialRectangle;connectable=0;fillColor=none;top=0;left=0;bottom=0;right=0;align=left;spacingLeft=2;overflow=hidden;fontSize=11;" vertex="1" parent="GkfL3eOmTXCgE_zVLW1G-94">
          <mxGeometry x="229" width="22" height="46" as="geometry">
            <mxRectangle width="22" height="46" as="alternateBounds" />
          </mxGeometry>
        </mxCell>
        <mxCell id="GkfL3eOmTXCgE_zVLW1G-98" style="shape=tableRow;horizontal=0;startSize=0;swimlaneHead=0;swimlaneBody=0;fillColor=none;collapsible=0;dropTarget=0;points=[[0,0.5],[1,0.5]];portConstraint=eastwest;top=0;left=0;right=0;bottom=0;" vertex="1" parent="GkfL3eOmTXCgE_zVLW1G-77">
          <mxGeometry y="255" width="251" height="46" as="geometry" />
        </mxCell>
        <mxCell id="GkfL3eOmTXCgE_zVLW1G-99" value="varchar" style="shape=partialRectangle;connectable=0;fillColor=none;top=0;left=0;bottom=0;right=0;align=left;spacingLeft=2;overflow=hidden;fontSize=11;" vertex="1" parent="GkfL3eOmTXCgE_zVLW1G-98">
          <mxGeometry width="42" height="46" as="geometry">
            <mxRectangle width="42" height="46" as="alternateBounds" />
          </mxGeometry>
        </mxCell>
        <mxCell id="GkfL3eOmTXCgE_zVLW1G-100" value="unlocked_next" style="shape=partialRectangle;connectable=0;fillColor=none;top=0;left=0;bottom=0;right=0;align=left;spacingLeft=2;overflow=hidden;fontSize=11;" vertex="1" parent="GkfL3eOmTXCgE_zVLW1G-98">
          <mxGeometry x="42" width="187" height="46" as="geometry">
            <mxRectangle width="187" height="46" as="alternateBounds" />
          </mxGeometry>
        </mxCell>
        <mxCell id="GkfL3eOmTXCgE_zVLW1G-101" value="" style="shape=partialRectangle;connectable=0;fillColor=none;top=0;left=0;bottom=0;right=0;align=left;spacingLeft=2;overflow=hidden;fontSize=11;" vertex="1" parent="GkfL3eOmTXCgE_zVLW1G-98">
          <mxGeometry x="229" width="22" height="46" as="geometry">
            <mxRectangle width="22" height="46" as="alternateBounds" />
          </mxGeometry>
        </mxCell>
        <mxCell id="GkfL3eOmTXCgE_zVLW1G-102" value="LEVEL_TASKS" style="shape=table;startSize=25;container=1;collapsible=0;childLayout=tableLayout;fixedRows=1;rowLines=1;fontStyle=1;align=center;resizeLast=1;" vertex="1" parent="1">
          <mxGeometry x="480" y="1169" width="262" height="385" as="geometry" />
        </mxCell>
        <mxCell id="GkfL3eOmTXCgE_zVLW1G-103" style="shape=tableRow;horizontal=0;startSize=0;swimlaneHead=0;swimlaneBody=0;fillColor=none;collapsible=0;dropTarget=0;points=[[0,0.5],[1,0.5]];portConstraint=eastwest;top=0;left=0;right=0;bottom=0;" vertex="1" parent="GkfL3eOmTXCgE_zVLW1G-102">
          <mxGeometry y="25" width="262" height="45" as="geometry" />
        </mxCell>
        <mxCell id="GkfL3eOmTXCgE_zVLW1G-104" value="int" style="shape=partialRectangle;connectable=0;fillColor=none;top=0;left=0;bottom=0;right=0;align=left;spacingLeft=2;overflow=hidden;fontSize=11;" vertex="1" parent="GkfL3eOmTXCgE_zVLW1G-103">
          <mxGeometry width="42" height="45" as="geometry">
            <mxRectangle width="42" height="45" as="alternateBounds" />
          </mxGeometry>
        </mxCell>
        <mxCell id="GkfL3eOmTXCgE_zVLW1G-105" value="id" style="shape=partialRectangle;connectable=0;fillColor=none;top=0;left=0;bottom=0;right=0;align=left;spacingLeft=2;overflow=hidden;fontSize=11;" vertex="1" parent="GkfL3eOmTXCgE_zVLW1G-103">
          <mxGeometry x="42" width="198" height="45" as="geometry">
            <mxRectangle width="198" height="45" as="alternateBounds" />
          </mxGeometry>
        </mxCell>
        <mxCell id="GkfL3eOmTXCgE_zVLW1G-106" value="PK" style="shape=partialRectangle;connectable=0;fillColor=none;top=0;left=0;bottom=0;right=0;align=left;spacingLeft=2;overflow=hidden;fontSize=11;" vertex="1" parent="GkfL3eOmTXCgE_zVLW1G-103">
          <mxGeometry x="240" width="22" height="45" as="geometry">
            <mxRectangle width="22" height="45" as="alternateBounds" />
          </mxGeometry>
        </mxCell>
        <mxCell id="GkfL3eOmTXCgE_zVLW1G-107" style="shape=tableRow;horizontal=0;startSize=0;swimlaneHead=0;swimlaneBody=0;fillColor=none;collapsible=0;dropTarget=0;points=[[0,0.5],[1,0.5]];portConstraint=eastwest;top=0;left=0;right=0;bottom=0;" vertex="1" parent="GkfL3eOmTXCgE_zVLW1G-102">
          <mxGeometry y="70" width="262" height="45" as="geometry" />
        </mxCell>
        <mxCell id="GkfL3eOmTXCgE_zVLW1G-108" value="int" style="shape=partialRectangle;connectable=0;fillColor=none;top=0;left=0;bottom=0;right=0;align=left;spacingLeft=2;overflow=hidden;fontSize=11;" vertex="1" parent="GkfL3eOmTXCgE_zVLW1G-107">
          <mxGeometry width="42" height="45" as="geometry">
            <mxRectangle width="42" height="45" as="alternateBounds" />
          </mxGeometry>
        </mxCell>
        <mxCell id="GkfL3eOmTXCgE_zVLW1G-109" value="level_id" style="shape=partialRectangle;connectable=0;fillColor=none;top=0;left=0;bottom=0;right=0;align=left;spacingLeft=2;overflow=hidden;fontSize=11;" vertex="1" parent="GkfL3eOmTXCgE_zVLW1G-107">
          <mxGeometry x="42" width="198" height="45" as="geometry">
            <mxRectangle width="198" height="45" as="alternateBounds" />
          </mxGeometry>
        </mxCell>
        <mxCell id="GkfL3eOmTXCgE_zVLW1G-110" value="FK" style="shape=partialRectangle;connectable=0;fillColor=none;top=0;left=0;bottom=0;right=0;align=left;spacingLeft=2;overflow=hidden;fontSize=11;" vertex="1" parent="GkfL3eOmTXCgE_zVLW1G-107">
          <mxGeometry x="240" width="22" height="45" as="geometry">
            <mxRectangle width="22" height="45" as="alternateBounds" />
          </mxGeometry>
        </mxCell>
        <mxCell id="GkfL3eOmTXCgE_zVLW1G-111" style="shape=tableRow;horizontal=0;startSize=0;swimlaneHead=0;swimlaneBody=0;fillColor=none;collapsible=0;dropTarget=0;points=[[0,0.5],[1,0.5]];portConstraint=eastwest;top=0;left=0;right=0;bottom=0;" vertex="1" parent="GkfL3eOmTXCgE_zVLW1G-102">
          <mxGeometry y="115" width="262" height="45" as="geometry" />
        </mxCell>
        <mxCell id="GkfL3eOmTXCgE_zVLW1G-112" value="text" style="shape=partialRectangle;connectable=0;fillColor=none;top=0;left=0;bottom=0;right=0;align=left;spacingLeft=2;overflow=hidden;fontSize=11;" vertex="1" parent="GkfL3eOmTXCgE_zVLW1G-111">
          <mxGeometry width="42" height="45" as="geometry">
            <mxRectangle width="42" height="45" as="alternateBounds" />
          </mxGeometry>
        </mxCell>
        <mxCell id="GkfL3eOmTXCgE_zVLW1G-113" value="introduction" style="shape=partialRectangle;connectable=0;fillColor=none;top=0;left=0;bottom=0;right=0;align=left;spacingLeft=2;overflow=hidden;fontSize=11;" vertex="1" parent="GkfL3eOmTXCgE_zVLW1G-111">
          <mxGeometry x="42" width="198" height="45" as="geometry">
            <mxRectangle width="198" height="45" as="alternateBounds" />
          </mxGeometry>
        </mxCell>
        <mxCell id="GkfL3eOmTXCgE_zVLW1G-114" value="" style="shape=partialRectangle;connectable=0;fillColor=none;top=0;left=0;bottom=0;right=0;align=left;spacingLeft=2;overflow=hidden;fontSize=11;" vertex="1" parent="GkfL3eOmTXCgE_zVLW1G-111">
          <mxGeometry x="240" width="22" height="45" as="geometry">
            <mxRectangle width="22" height="45" as="alternateBounds" />
          </mxGeometry>
        </mxCell>
        <mxCell id="GkfL3eOmTXCgE_zVLW1G-115" style="shape=tableRow;horizontal=0;startSize=0;swimlaneHead=0;swimlaneBody=0;fillColor=none;collapsible=0;dropTarget=0;points=[[0,0.5],[1,0.5]];portConstraint=eastwest;top=0;left=0;right=0;bottom=0;" vertex="1" parent="GkfL3eOmTXCgE_zVLW1G-102">
          <mxGeometry y="160" width="262" height="45" as="geometry" />
        </mxCell>
        <mxCell id="GkfL3eOmTXCgE_zVLW1G-116" value="varchar" style="shape=partialRectangle;connectable=0;fillColor=none;top=0;left=0;bottom=0;right=0;align=left;spacingLeft=2;overflow=hidden;fontSize=11;" vertex="1" parent="GkfL3eOmTXCgE_zVLW1G-115">
          <mxGeometry width="42" height="45" as="geometry">
            <mxRectangle width="42" height="45" as="alternateBounds" />
          </mxGeometry>
        </mxCell>
        <mxCell id="GkfL3eOmTXCgE_zVLW1G-117" value="reference_table" style="shape=partialRectangle;connectable=0;fillColor=none;top=0;left=0;bottom=0;right=0;align=left;spacingLeft=2;overflow=hidden;fontSize=11;" vertex="1" parent="GkfL3eOmTXCgE_zVLW1G-115">
          <mxGeometry x="42" width="198" height="45" as="geometry">
            <mxRectangle width="198" height="45" as="alternateBounds" />
          </mxGeometry>
        </mxCell>
        <mxCell id="GkfL3eOmTXCgE_zVLW1G-118" value="" style="shape=partialRectangle;connectable=0;fillColor=none;top=0;left=0;bottom=0;right=0;align=left;spacingLeft=2;overflow=hidden;fontSize=11;" vertex="1" parent="GkfL3eOmTXCgE_zVLW1G-115">
          <mxGeometry x="240" width="22" height="45" as="geometry">
            <mxRectangle width="22" height="45" as="alternateBounds" />
          </mxGeometry>
        </mxCell>
        <mxCell id="GkfL3eOmTXCgE_zVLW1G-119" style="shape=tableRow;horizontal=0;startSize=0;swimlaneHead=0;swimlaneBody=0;fillColor=none;collapsible=0;dropTarget=0;points=[[0,0.5],[1,0.5]];portConstraint=eastwest;top=0;left=0;right=0;bottom=0;" vertex="1" parent="GkfL3eOmTXCgE_zVLW1G-102">
          <mxGeometry y="205" width="262" height="45" as="geometry" />
        </mxCell>
        <mxCell id="GkfL3eOmTXCgE_zVLW1G-120" value="text" style="shape=partialRectangle;connectable=0;fillColor=none;top=0;left=0;bottom=0;right=0;align=left;spacingLeft=2;overflow=hidden;fontSize=11;" vertex="1" parent="GkfL3eOmTXCgE_zVLW1G-119">
          <mxGeometry width="42" height="45" as="geometry">
            <mxRectangle width="42" height="45" as="alternateBounds" />
          </mxGeometry>
        </mxCell>
        <mxCell id="GkfL3eOmTXCgE_zVLW1G-121" value="task" style="shape=partialRectangle;connectable=0;fillColor=none;top=0;left=0;bottom=0;right=0;align=left;spacingLeft=2;overflow=hidden;fontSize=11;" vertex="1" parent="GkfL3eOmTXCgE_zVLW1G-119">
          <mxGeometry x="42" width="198" height="45" as="geometry">
            <mxRectangle width="198" height="45" as="alternateBounds" />
          </mxGeometry>
        </mxCell>
        <mxCell id="GkfL3eOmTXCgE_zVLW1G-122" value="" style="shape=partialRectangle;connectable=0;fillColor=none;top=0;left=0;bottom=0;right=0;align=left;spacingLeft=2;overflow=hidden;fontSize=11;" vertex="1" parent="GkfL3eOmTXCgE_zVLW1G-119">
          <mxGeometry x="240" width="22" height="45" as="geometry">
            <mxRectangle width="22" height="45" as="alternateBounds" />
          </mxGeometry>
        </mxCell>
        <mxCell id="GkfL3eOmTXCgE_zVLW1G-123" style="shape=tableRow;horizontal=0;startSize=0;swimlaneHead=0;swimlaneBody=0;fillColor=none;collapsible=0;dropTarget=0;points=[[0,0.5],[1,0.5]];portConstraint=eastwest;top=0;left=0;right=0;bottom=0;" vertex="1" parent="GkfL3eOmTXCgE_zVLW1G-102">
          <mxGeometry y="250" width="262" height="45" as="geometry" />
        </mxCell>
        <mxCell id="GkfL3eOmTXCgE_zVLW1G-124" value="text" style="shape=partialRectangle;connectable=0;fillColor=none;top=0;left=0;bottom=0;right=0;align=left;spacingLeft=2;overflow=hidden;fontSize=11;" vertex="1" parent="GkfL3eOmTXCgE_zVLW1G-123">
          <mxGeometry width="42" height="45" as="geometry">
            <mxRectangle width="42" height="45" as="alternateBounds" />
          </mxGeometry>
        </mxCell>
        <mxCell id="GkfL3eOmTXCgE_zVLW1G-125" value="expected_query" style="shape=partialRectangle;connectable=0;fillColor=none;top=0;left=0;bottom=0;right=0;align=left;spacingLeft=2;overflow=hidden;fontSize=11;" vertex="1" parent="GkfL3eOmTXCgE_zVLW1G-123">
          <mxGeometry x="42" width="198" height="45" as="geometry">
            <mxRectangle width="198" height="45" as="alternateBounds" />
          </mxGeometry>
        </mxCell>
        <mxCell id="GkfL3eOmTXCgE_zVLW1G-126" value="" style="shape=partialRectangle;connectable=0;fillColor=none;top=0;left=0;bottom=0;right=0;align=left;spacingLeft=2;overflow=hidden;fontSize=11;" vertex="1" parent="GkfL3eOmTXCgE_zVLW1G-123">
          <mxGeometry x="240" width="22" height="45" as="geometry">
            <mxRectangle width="22" height="45" as="alternateBounds" />
          </mxGeometry>
        </mxCell>
        <mxCell id="GkfL3eOmTXCgE_zVLW1G-127" style="shape=tableRow;horizontal=0;startSize=0;swimlaneHead=0;swimlaneBody=0;fillColor=none;collapsible=0;dropTarget=0;points=[[0,0.5],[1,0.5]];portConstraint=eastwest;top=0;left=0;right=0;bottom=0;" vertex="1" parent="GkfL3eOmTXCgE_zVLW1G-102">
          <mxGeometry y="295" width="262" height="45" as="geometry" />
        </mxCell>
        <mxCell id="GkfL3eOmTXCgE_zVLW1G-128" value="text" style="shape=partialRectangle;connectable=0;fillColor=none;top=0;left=0;bottom=0;right=0;align=left;spacingLeft=2;overflow=hidden;fontSize=11;" vertex="1" parent="GkfL3eOmTXCgE_zVLW1G-127">
          <mxGeometry width="42" height="45" as="geometry">
            <mxRectangle width="42" height="45" as="alternateBounds" />
          </mxGeometry>
        </mxCell>
        <mxCell id="GkfL3eOmTXCgE_zVLW1G-129" value="clue" style="shape=partialRectangle;connectable=0;fillColor=none;top=0;left=0;bottom=0;right=0;align=left;spacingLeft=2;overflow=hidden;fontSize=11;" vertex="1" parent="GkfL3eOmTXCgE_zVLW1G-127">
          <mxGeometry x="42" width="198" height="45" as="geometry">
            <mxRectangle width="198" height="45" as="alternateBounds" />
          </mxGeometry>
        </mxCell>
        <mxCell id="GkfL3eOmTXCgE_zVLW1G-130" value="" style="shape=partialRectangle;connectable=0;fillColor=none;top=0;left=0;bottom=0;right=0;align=left;spacingLeft=2;overflow=hidden;fontSize=11;" vertex="1" parent="GkfL3eOmTXCgE_zVLW1G-127">
          <mxGeometry x="240" width="22" height="45" as="geometry">
            <mxRectangle width="22" height="45" as="alternateBounds" />
          </mxGeometry>
        </mxCell>
        <mxCell id="GkfL3eOmTXCgE_zVLW1G-131" style="shape=tableRow;horizontal=0;startSize=0;swimlaneHead=0;swimlaneBody=0;fillColor=none;collapsible=0;dropTarget=0;points=[[0,0.5],[1,0.5]];portConstraint=eastwest;top=0;left=0;right=0;bottom=0;" vertex="1" parent="GkfL3eOmTXCgE_zVLW1G-102">
          <mxGeometry y="340" width="262" height="45" as="geometry" />
        </mxCell>
        <mxCell id="GkfL3eOmTXCgE_zVLW1G-132" value="text" style="shape=partialRectangle;connectable=0;fillColor=none;top=0;left=0;bottom=0;right=0;align=left;spacingLeft=2;overflow=hidden;fontSize=11;" vertex="1" parent="GkfL3eOmTXCgE_zVLW1G-131">
          <mxGeometry width="42" height="45" as="geometry">
            <mxRectangle width="42" height="45" as="alternateBounds" />
          </mxGeometry>
        </mxCell>
        <mxCell id="GkfL3eOmTXCgE_zVLW1G-133" value="help" style="shape=partialRectangle;connectable=0;fillColor=none;top=0;left=0;bottom=0;right=0;align=left;spacingLeft=2;overflow=hidden;fontSize=11;" vertex="1" parent="GkfL3eOmTXCgE_zVLW1G-131">
          <mxGeometry x="42" width="198" height="45" as="geometry">
            <mxRectangle width="198" height="45" as="alternateBounds" />
          </mxGeometry>
        </mxCell>
        <mxCell id="GkfL3eOmTXCgE_zVLW1G-134" value="" style="shape=partialRectangle;connectable=0;fillColor=none;top=0;left=0;bottom=0;right=0;align=left;spacingLeft=2;overflow=hidden;fontSize=11;" vertex="1" parent="GkfL3eOmTXCgE_zVLW1G-131">
          <mxGeometry x="240" width="22" height="45" as="geometry">
            <mxRectangle width="22" height="45" as="alternateBounds" />
          </mxGeometry>
        </mxCell>
        <mxCell id="GkfL3eOmTXCgE_zVLW1G-135" value="PROVINCES" style="shape=table;startSize=25;container=1;collapsible=0;childLayout=tableLayout;fixedRows=1;rowLines=1;fontStyle=1;align=center;resizeLast=1;" vertex="1" parent="1">
          <mxGeometry x="1571" y="63" width="230" height="129" as="geometry" />
        </mxCell>
        <mxCell id="GkfL3eOmTXCgE_zVLW1G-136" style="shape=tableRow;horizontal=0;startSize=0;swimlaneHead=0;swimlaneBody=0;fillColor=none;collapsible=0;dropTarget=0;points=[[0,0.5],[1,0.5]];portConstraint=eastwest;top=0;left=0;right=0;bottom=0;" vertex="1" parent="GkfL3eOmTXCgE_zVLW1G-135">
          <mxGeometry y="25" width="230" height="52" as="geometry" />
        </mxCell>
        <mxCell id="GkfL3eOmTXCgE_zVLW1G-137" value="int" style="shape=partialRectangle;connectable=0;fillColor=none;top=0;left=0;bottom=0;right=0;align=left;spacingLeft=2;overflow=hidden;fontSize=11;" vertex="1" parent="GkfL3eOmTXCgE_zVLW1G-136">
          <mxGeometry width="42" height="52" as="geometry">
            <mxRectangle width="42" height="52" as="alternateBounds" />
          </mxGeometry>
        </mxCell>
        <mxCell id="GkfL3eOmTXCgE_zVLW1G-138" value="province_id" style="shape=partialRectangle;connectable=0;fillColor=none;top=0;left=0;bottom=0;right=0;align=left;spacingLeft=2;overflow=hidden;fontSize=11;" vertex="1" parent="GkfL3eOmTXCgE_zVLW1G-136">
          <mxGeometry x="42" width="166" height="52" as="geometry">
            <mxRectangle width="166" height="52" as="alternateBounds" />
          </mxGeometry>
        </mxCell>
        <mxCell id="GkfL3eOmTXCgE_zVLW1G-139" value="PK" style="shape=partialRectangle;connectable=0;fillColor=none;top=0;left=0;bottom=0;right=0;align=left;spacingLeft=2;overflow=hidden;fontSize=11;" vertex="1" parent="GkfL3eOmTXCgE_zVLW1G-136">
          <mxGeometry x="208" width="22" height="52" as="geometry">
            <mxRectangle width="22" height="52" as="alternateBounds" />
          </mxGeometry>
        </mxCell>
        <mxCell id="GkfL3eOmTXCgE_zVLW1G-140" style="shape=tableRow;horizontal=0;startSize=0;swimlaneHead=0;swimlaneBody=0;fillColor=none;collapsible=0;dropTarget=0;points=[[0,0.5],[1,0.5]];portConstraint=eastwest;top=0;left=0;right=0;bottom=0;" vertex="1" parent="GkfL3eOmTXCgE_zVLW1G-135">
          <mxGeometry y="77" width="230" height="52" as="geometry" />
        </mxCell>
        <mxCell id="GkfL3eOmTXCgE_zVLW1G-141" value="varchar" style="shape=partialRectangle;connectable=0;fillColor=none;top=0;left=0;bottom=0;right=0;align=left;spacingLeft=2;overflow=hidden;fontSize=11;" vertex="1" parent="GkfL3eOmTXCgE_zVLW1G-140">
          <mxGeometry width="42" height="52" as="geometry">
            <mxRectangle width="42" height="52" as="alternateBounds" />
          </mxGeometry>
        </mxCell>
        <mxCell id="GkfL3eOmTXCgE_zVLW1G-142" value="name" style="shape=partialRectangle;connectable=0;fillColor=none;top=0;left=0;bottom=0;right=0;align=left;spacingLeft=2;overflow=hidden;fontSize=11;" vertex="1" parent="GkfL3eOmTXCgE_zVLW1G-140">
          <mxGeometry x="42" width="166" height="52" as="geometry">
            <mxRectangle width="166" height="52" as="alternateBounds" />
          </mxGeometry>
        </mxCell>
        <mxCell id="GkfL3eOmTXCgE_zVLW1G-143" value="" style="shape=partialRectangle;connectable=0;fillColor=none;top=0;left=0;bottom=0;right=0;align=left;spacingLeft=2;overflow=hidden;fontSize=11;" vertex="1" parent="GkfL3eOmTXCgE_zVLW1G-140">
          <mxGeometry x="208" width="22" height="52" as="geometry">
            <mxRectangle width="22" height="52" as="alternateBounds" />
          </mxGeometry>
        </mxCell>
        <mxCell id="GkfL3eOmTXCgE_zVLW1G-144" value="HOTELS" style="shape=table;startSize=25;container=1;collapsible=0;childLayout=tableLayout;fixedRows=1;rowLines=1;fontStyle=1;align=center;resizeLast=1;" vertex="1" parent="1">
          <mxGeometry x="1570" y="357" width="233" height="257" as="geometry" />
        </mxCell>
        <mxCell id="GkfL3eOmTXCgE_zVLW1G-145" style="shape=tableRow;horizontal=0;startSize=0;swimlaneHead=0;swimlaneBody=0;fillColor=none;collapsible=0;dropTarget=0;points=[[0,0.5],[1,0.5]];portConstraint=eastwest;top=0;left=0;right=0;bottom=0;" vertex="1" parent="GkfL3eOmTXCgE_zVLW1G-144">
          <mxGeometry y="25" width="233" height="46" as="geometry" />
        </mxCell>
        <mxCell id="GkfL3eOmTXCgE_zVLW1G-146" value="int" style="shape=partialRectangle;connectable=0;fillColor=none;top=0;left=0;bottom=0;right=0;align=left;spacingLeft=2;overflow=hidden;fontSize=11;" vertex="1" parent="GkfL3eOmTXCgE_zVLW1G-145">
          <mxGeometry width="42" height="46" as="geometry">
            <mxRectangle width="42" height="46" as="alternateBounds" />
          </mxGeometry>
        </mxCell>
        <mxCell id="GkfL3eOmTXCgE_zVLW1G-147" value="hotel_id" style="shape=partialRectangle;connectable=0;fillColor=none;top=0;left=0;bottom=0;right=0;align=left;spacingLeft=2;overflow=hidden;fontSize=11;" vertex="1" parent="GkfL3eOmTXCgE_zVLW1G-145">
          <mxGeometry x="42" width="169" height="46" as="geometry">
            <mxRectangle width="169" height="46" as="alternateBounds" />
          </mxGeometry>
        </mxCell>
        <mxCell id="GkfL3eOmTXCgE_zVLW1G-148" value="PK" style="shape=partialRectangle;connectable=0;fillColor=none;top=0;left=0;bottom=0;right=0;align=left;spacingLeft=2;overflow=hidden;fontSize=11;" vertex="1" parent="GkfL3eOmTXCgE_zVLW1G-145">
          <mxGeometry x="211" width="22" height="46" as="geometry">
            <mxRectangle width="22" height="46" as="alternateBounds" />
          </mxGeometry>
        </mxCell>
        <mxCell id="GkfL3eOmTXCgE_zVLW1G-149" style="shape=tableRow;horizontal=0;startSize=0;swimlaneHead=0;swimlaneBody=0;fillColor=none;collapsible=0;dropTarget=0;points=[[0,0.5],[1,0.5]];portConstraint=eastwest;top=0;left=0;right=0;bottom=0;" vertex="1" parent="GkfL3eOmTXCgE_zVLW1G-144">
          <mxGeometry y="71" width="233" height="46" as="geometry" />
        </mxCell>
        <mxCell id="GkfL3eOmTXCgE_zVLW1G-150" value="varchar" style="shape=partialRectangle;connectable=0;fillColor=none;top=0;left=0;bottom=0;right=0;align=left;spacingLeft=2;overflow=hidden;fontSize=11;" vertex="1" parent="GkfL3eOmTXCgE_zVLW1G-149">
          <mxGeometry width="42" height="46" as="geometry">
            <mxRectangle width="42" height="46" as="alternateBounds" />
          </mxGeometry>
        </mxCell>
        <mxCell id="GkfL3eOmTXCgE_zVLW1G-151" value="name" style="shape=partialRectangle;connectable=0;fillColor=none;top=0;left=0;bottom=0;right=0;align=left;spacingLeft=2;overflow=hidden;fontSize=11;" vertex="1" parent="GkfL3eOmTXCgE_zVLW1G-149">
          <mxGeometry x="42" width="169" height="46" as="geometry">
            <mxRectangle width="169" height="46" as="alternateBounds" />
          </mxGeometry>
        </mxCell>
        <mxCell id="GkfL3eOmTXCgE_zVLW1G-152" value="" style="shape=partialRectangle;connectable=0;fillColor=none;top=0;left=0;bottom=0;right=0;align=left;spacingLeft=2;overflow=hidden;fontSize=11;" vertex="1" parent="GkfL3eOmTXCgE_zVLW1G-149">
          <mxGeometry x="211" width="22" height="46" as="geometry">
            <mxRectangle width="22" height="46" as="alternateBounds" />
          </mxGeometry>
        </mxCell>
        <mxCell id="GkfL3eOmTXCgE_zVLW1G-153" style="shape=tableRow;horizontal=0;startSize=0;swimlaneHead=0;swimlaneBody=0;fillColor=none;collapsible=0;dropTarget=0;points=[[0,0.5],[1,0.5]];portConstraint=eastwest;top=0;left=0;right=0;bottom=0;" vertex="1" parent="GkfL3eOmTXCgE_zVLW1G-144">
          <mxGeometry y="117" width="233" height="46" as="geometry" />
        </mxCell>
        <mxCell id="GkfL3eOmTXCgE_zVLW1G-154" value="varchar" style="shape=partialRectangle;connectable=0;fillColor=none;top=0;left=0;bottom=0;right=0;align=left;spacingLeft=2;overflow=hidden;fontSize=11;" vertex="1" parent="GkfL3eOmTXCgE_zVLW1G-153">
          <mxGeometry width="42" height="46" as="geometry">
            <mxRectangle width="42" height="46" as="alternateBounds" />
          </mxGeometry>
        </mxCell>
        <mxCell id="GkfL3eOmTXCgE_zVLW1G-155" value="city" style="shape=partialRectangle;connectable=0;fillColor=none;top=0;left=0;bottom=0;right=0;align=left;spacingLeft=2;overflow=hidden;fontSize=11;" vertex="1" parent="GkfL3eOmTXCgE_zVLW1G-153">
          <mxGeometry x="42" width="169" height="46" as="geometry">
            <mxRectangle width="169" height="46" as="alternateBounds" />
          </mxGeometry>
        </mxCell>
        <mxCell id="GkfL3eOmTXCgE_zVLW1G-156" value="" style="shape=partialRectangle;connectable=0;fillColor=none;top=0;left=0;bottom=0;right=0;align=left;spacingLeft=2;overflow=hidden;fontSize=11;" vertex="1" parent="GkfL3eOmTXCgE_zVLW1G-153">
          <mxGeometry x="211" width="22" height="46" as="geometry">
            <mxRectangle width="22" height="46" as="alternateBounds" />
          </mxGeometry>
        </mxCell>
        <mxCell id="GkfL3eOmTXCgE_zVLW1G-157" style="shape=tableRow;horizontal=0;startSize=0;swimlaneHead=0;swimlaneBody=0;fillColor=none;collapsible=0;dropTarget=0;points=[[0,0.5],[1,0.5]];portConstraint=eastwest;top=0;left=0;right=0;bottom=0;" vertex="1" parent="GkfL3eOmTXCgE_zVLW1G-144">
          <mxGeometry y="163" width="233" height="46" as="geometry" />
        </mxCell>
        <mxCell id="GkfL3eOmTXCgE_zVLW1G-158" value="int" style="shape=partialRectangle;connectable=0;fillColor=none;top=0;left=0;bottom=0;right=0;align=left;spacingLeft=2;overflow=hidden;fontSize=11;" vertex="1" parent="GkfL3eOmTXCgE_zVLW1G-157">
          <mxGeometry width="42" height="46" as="geometry">
            <mxRectangle width="42" height="46" as="alternateBounds" />
          </mxGeometry>
        </mxCell>
        <mxCell id="GkfL3eOmTXCgE_zVLW1G-159" value="province_id" style="shape=partialRectangle;connectable=0;fillColor=none;top=0;left=0;bottom=0;right=0;align=left;spacingLeft=2;overflow=hidden;fontSize=11;" vertex="1" parent="GkfL3eOmTXCgE_zVLW1G-157">
          <mxGeometry x="42" width="169" height="46" as="geometry">
            <mxRectangle width="169" height="46" as="alternateBounds" />
          </mxGeometry>
        </mxCell>
        <mxCell id="GkfL3eOmTXCgE_zVLW1G-160" value="FK" style="shape=partialRectangle;connectable=0;fillColor=none;top=0;left=0;bottom=0;right=0;align=left;spacingLeft=2;overflow=hidden;fontSize=11;" vertex="1" parent="GkfL3eOmTXCgE_zVLW1G-157">
          <mxGeometry x="211" width="22" height="46" as="geometry">
            <mxRectangle width="22" height="46" as="alternateBounds" />
          </mxGeometry>
        </mxCell>
        <mxCell id="GkfL3eOmTXCgE_zVLW1G-161" style="shape=tableRow;horizontal=0;startSize=0;swimlaneHead=0;swimlaneBody=0;fillColor=none;collapsible=0;dropTarget=0;points=[[0,0.5],[1,0.5]];portConstraint=eastwest;top=0;left=0;right=0;bottom=0;" vertex="1" parent="GkfL3eOmTXCgE_zVLW1G-144">
          <mxGeometry y="209" width="233" height="46" as="geometry" />
        </mxCell>
        <mxCell id="GkfL3eOmTXCgE_zVLW1G-162" value="decimal" style="shape=partialRectangle;connectable=0;fillColor=none;top=0;left=0;bottom=0;right=0;align=left;spacingLeft=2;overflow=hidden;fontSize=11;" vertex="1" parent="GkfL3eOmTXCgE_zVLW1G-161">
          <mxGeometry width="42" height="46" as="geometry">
            <mxRectangle width="42" height="46" as="alternateBounds" />
          </mxGeometry>
        </mxCell>
        <mxCell id="GkfL3eOmTXCgE_zVLW1G-163" value="price" style="shape=partialRectangle;connectable=0;fillColor=none;top=0;left=0;bottom=0;right=0;align=left;spacingLeft=2;overflow=hidden;fontSize=11;" vertex="1" parent="GkfL3eOmTXCgE_zVLW1G-161">
          <mxGeometry x="42" width="169" height="46" as="geometry">
            <mxRectangle width="169" height="46" as="alternateBounds" />
          </mxGeometry>
        </mxCell>
        <mxCell id="GkfL3eOmTXCgE_zVLW1G-164" value="" style="shape=partialRectangle;connectable=0;fillColor=none;top=0;left=0;bottom=0;right=0;align=left;spacingLeft=2;overflow=hidden;fontSize=11;" vertex="1" parent="GkfL3eOmTXCgE_zVLW1G-161">
          <mxGeometry x="211" width="22" height="46" as="geometry">
            <mxRectangle width="22" height="46" as="alternateBounds" />
          </mxGeometry>
        </mxCell>
        <mxCell id="GkfL3eOmTXCgE_zVLW1G-165" value="TOURISTS" style="shape=table;startSize=25;container=1;collapsible=0;childLayout=tableLayout;fixedRows=1;rowLines=1;fontStyle=1;align=center;resizeLast=1;" vertex="1" parent="1">
          <mxGeometry x="1943" y="379" width="216" height="214" as="geometry" />
        </mxCell>
        <mxCell id="GkfL3eOmTXCgE_zVLW1G-166" style="shape=tableRow;horizontal=0;startSize=0;swimlaneHead=0;swimlaneBody=0;fillColor=none;collapsible=0;dropTarget=0;points=[[0,0.5],[1,0.5]];portConstraint=eastwest;top=0;left=0;right=0;bottom=0;" vertex="1" parent="GkfL3eOmTXCgE_zVLW1G-165">
          <mxGeometry y="25" width="216" height="47" as="geometry" />
        </mxCell>
        <mxCell id="GkfL3eOmTXCgE_zVLW1G-167" value="int" style="shape=partialRectangle;connectable=0;fillColor=none;top=0;left=0;bottom=0;right=0;align=left;spacingLeft=2;overflow=hidden;fontSize=11;" vertex="1" parent="GkfL3eOmTXCgE_zVLW1G-166">
          <mxGeometry width="42" height="47" as="geometry">
            <mxRectangle width="42" height="47" as="alternateBounds" />
          </mxGeometry>
        </mxCell>
        <mxCell id="GkfL3eOmTXCgE_zVLW1G-168" value="tourist_id" style="shape=partialRectangle;connectable=0;fillColor=none;top=0;left=0;bottom=0;right=0;align=left;spacingLeft=2;overflow=hidden;fontSize=11;" vertex="1" parent="GkfL3eOmTXCgE_zVLW1G-166">
          <mxGeometry x="42" width="152" height="47" as="geometry">
            <mxRectangle width="152" height="47" as="alternateBounds" />
          </mxGeometry>
        </mxCell>
        <mxCell id="GkfL3eOmTXCgE_zVLW1G-169" value="PK" style="shape=partialRectangle;connectable=0;fillColor=none;top=0;left=0;bottom=0;right=0;align=left;spacingLeft=2;overflow=hidden;fontSize=11;" vertex="1" parent="GkfL3eOmTXCgE_zVLW1G-166">
          <mxGeometry x="194" width="22" height="47" as="geometry">
            <mxRectangle width="22" height="47" as="alternateBounds" />
          </mxGeometry>
        </mxCell>
        <mxCell id="GkfL3eOmTXCgE_zVLW1G-170" style="shape=tableRow;horizontal=0;startSize=0;swimlaneHead=0;swimlaneBody=0;fillColor=none;collapsible=0;dropTarget=0;points=[[0,0.5],[1,0.5]];portConstraint=eastwest;top=0;left=0;right=0;bottom=0;" vertex="1" parent="GkfL3eOmTXCgE_zVLW1G-165">
          <mxGeometry y="72" width="216" height="47" as="geometry" />
        </mxCell>
        <mxCell id="GkfL3eOmTXCgE_zVLW1G-171" value="varchar" style="shape=partialRectangle;connectable=0;fillColor=none;top=0;left=0;bottom=0;right=0;align=left;spacingLeft=2;overflow=hidden;fontSize=11;" vertex="1" parent="GkfL3eOmTXCgE_zVLW1G-170">
          <mxGeometry width="42" height="47" as="geometry">
            <mxRectangle width="42" height="47" as="alternateBounds" />
          </mxGeometry>
        </mxCell>
        <mxCell id="GkfL3eOmTXCgE_zVLW1G-172" value="name" style="shape=partialRectangle;connectable=0;fillColor=none;top=0;left=0;bottom=0;right=0;align=left;spacingLeft=2;overflow=hidden;fontSize=11;" vertex="1" parent="GkfL3eOmTXCgE_zVLW1G-170">
          <mxGeometry x="42" width="152" height="47" as="geometry">
            <mxRectangle width="152" height="47" as="alternateBounds" />
          </mxGeometry>
        </mxCell>
        <mxCell id="GkfL3eOmTXCgE_zVLW1G-173" value="" style="shape=partialRectangle;connectable=0;fillColor=none;top=0;left=0;bottom=0;right=0;align=left;spacingLeft=2;overflow=hidden;fontSize=11;" vertex="1" parent="GkfL3eOmTXCgE_zVLW1G-170">
          <mxGeometry x="194" width="22" height="47" as="geometry">
            <mxRectangle width="22" height="47" as="alternateBounds" />
          </mxGeometry>
        </mxCell>
        <mxCell id="GkfL3eOmTXCgE_zVLW1G-174" style="shape=tableRow;horizontal=0;startSize=0;swimlaneHead=0;swimlaneBody=0;fillColor=none;collapsible=0;dropTarget=0;points=[[0,0.5],[1,0.5]];portConstraint=eastwest;top=0;left=0;right=0;bottom=0;" vertex="1" parent="GkfL3eOmTXCgE_zVLW1G-165">
          <mxGeometry y="119" width="216" height="47" as="geometry" />
        </mxCell>
        <mxCell id="GkfL3eOmTXCgE_zVLW1G-175" value="varchar" style="shape=partialRectangle;connectable=0;fillColor=none;top=0;left=0;bottom=0;right=0;align=left;spacingLeft=2;overflow=hidden;fontSize=11;" vertex="1" parent="GkfL3eOmTXCgE_zVLW1G-174">
          <mxGeometry width="42" height="47" as="geometry">
            <mxRectangle width="42" height="47" as="alternateBounds" />
          </mxGeometry>
        </mxCell>
        <mxCell id="GkfL3eOmTXCgE_zVLW1G-176" value="country" style="shape=partialRectangle;connectable=0;fillColor=none;top=0;left=0;bottom=0;right=0;align=left;spacingLeft=2;overflow=hidden;fontSize=11;" vertex="1" parent="GkfL3eOmTXCgE_zVLW1G-174">
          <mxGeometry x="42" width="152" height="47" as="geometry">
            <mxRectangle width="152" height="47" as="alternateBounds" />
          </mxGeometry>
        </mxCell>
        <mxCell id="GkfL3eOmTXCgE_zVLW1G-177" value="" style="shape=partialRectangle;connectable=0;fillColor=none;top=0;left=0;bottom=0;right=0;align=left;spacingLeft=2;overflow=hidden;fontSize=11;" vertex="1" parent="GkfL3eOmTXCgE_zVLW1G-174">
          <mxGeometry x="194" width="22" height="47" as="geometry">
            <mxRectangle width="22" height="47" as="alternateBounds" />
          </mxGeometry>
        </mxCell>
        <mxCell id="GkfL3eOmTXCgE_zVLW1G-178" style="shape=tableRow;horizontal=0;startSize=0;swimlaneHead=0;swimlaneBody=0;fillColor=none;collapsible=0;dropTarget=0;points=[[0,0.5],[1,0.5]];portConstraint=eastwest;top=0;left=0;right=0;bottom=0;" vertex="1" parent="GkfL3eOmTXCgE_zVLW1G-165">
          <mxGeometry y="166" width="216" height="47" as="geometry" />
        </mxCell>
        <mxCell id="GkfL3eOmTXCgE_zVLW1G-179" value="int" style="shape=partialRectangle;connectable=0;fillColor=none;top=0;left=0;bottom=0;right=0;align=left;spacingLeft=2;overflow=hidden;fontSize=11;" vertex="1" parent="GkfL3eOmTXCgE_zVLW1G-178">
          <mxGeometry width="42" height="47" as="geometry">
            <mxRectangle width="42" height="47" as="alternateBounds" />
          </mxGeometry>
        </mxCell>
        <mxCell id="GkfL3eOmTXCgE_zVLW1G-180" value="age" style="shape=partialRectangle;connectable=0;fillColor=none;top=0;left=0;bottom=0;right=0;align=left;spacingLeft=2;overflow=hidden;fontSize=11;" vertex="1" parent="GkfL3eOmTXCgE_zVLW1G-178">
          <mxGeometry x="42" width="152" height="47" as="geometry">
            <mxRectangle width="152" height="47" as="alternateBounds" />
          </mxGeometry>
        </mxCell>
        <mxCell id="GkfL3eOmTXCgE_zVLW1G-181" value="" style="shape=partialRectangle;connectable=0;fillColor=none;top=0;left=0;bottom=0;right=0;align=left;spacingLeft=2;overflow=hidden;fontSize=11;" vertex="1" parent="GkfL3eOmTXCgE_zVLW1G-178">
          <mxGeometry x="194" width="22" height="47" as="geometry">
            <mxRectangle width="22" height="47" as="alternateBounds" />
          </mxGeometry>
        </mxCell>
        <mxCell id="GkfL3eOmTXCgE_zVLW1G-182" value="BOOKINGS" style="shape=table;startSize=25;container=1;collapsible=0;childLayout=tableLayout;fixedRows=1;rowLines=1;fontStyle=1;align=center;resizeLast=1;" vertex="1" parent="1">
          <mxGeometry x="1767" y="780" width="203" height="214" as="geometry" />
        </mxCell>
        <mxCell id="GkfL3eOmTXCgE_zVLW1G-183" style="shape=tableRow;horizontal=0;startSize=0;swimlaneHead=0;swimlaneBody=0;fillColor=none;collapsible=0;dropTarget=0;points=[[0,0.5],[1,0.5]];portConstraint=eastwest;top=0;left=0;right=0;bottom=0;" vertex="1" parent="GkfL3eOmTXCgE_zVLW1G-182">
          <mxGeometry y="25" width="203" height="47" as="geometry" />
        </mxCell>
        <mxCell id="GkfL3eOmTXCgE_zVLW1G-184" value="int" style="shape=partialRectangle;connectable=0;fillColor=none;top=0;left=0;bottom=0;right=0;align=left;spacingLeft=2;overflow=hidden;fontSize=11;" vertex="1" parent="GkfL3eOmTXCgE_zVLW1G-183">
          <mxGeometry width="24" height="47" as="geometry">
            <mxRectangle width="24" height="47" as="alternateBounds" />
          </mxGeometry>
        </mxCell>
        <mxCell id="GkfL3eOmTXCgE_zVLW1G-185" value="booking_id" style="shape=partialRectangle;connectable=0;fillColor=none;top=0;left=0;bottom=0;right=0;align=left;spacingLeft=2;overflow=hidden;fontSize=11;" vertex="1" parent="GkfL3eOmTXCgE_zVLW1G-183">
          <mxGeometry x="24" width="157" height="47" as="geometry">
            <mxRectangle width="157" height="47" as="alternateBounds" />
          </mxGeometry>
        </mxCell>
        <mxCell id="GkfL3eOmTXCgE_zVLW1G-186" value="PK" style="shape=partialRectangle;connectable=0;fillColor=none;top=0;left=0;bottom=0;right=0;align=left;spacingLeft=2;overflow=hidden;fontSize=11;" vertex="1" parent="GkfL3eOmTXCgE_zVLW1G-183">
          <mxGeometry x="181" width="22" height="47" as="geometry">
            <mxRectangle width="22" height="47" as="alternateBounds" />
          </mxGeometry>
        </mxCell>
        <mxCell id="GkfL3eOmTXCgE_zVLW1G-187" style="shape=tableRow;horizontal=0;startSize=0;swimlaneHead=0;swimlaneBody=0;fillColor=none;collapsible=0;dropTarget=0;points=[[0,0.5],[1,0.5]];portConstraint=eastwest;top=0;left=0;right=0;bottom=0;" vertex="1" parent="GkfL3eOmTXCgE_zVLW1G-182">
          <mxGeometry y="72" width="203" height="47" as="geometry" />
        </mxCell>
        <mxCell id="GkfL3eOmTXCgE_zVLW1G-188" value="int" style="shape=partialRectangle;connectable=0;fillColor=none;top=0;left=0;bottom=0;right=0;align=left;spacingLeft=2;overflow=hidden;fontSize=11;" vertex="1" parent="GkfL3eOmTXCgE_zVLW1G-187">
          <mxGeometry width="24" height="47" as="geometry">
            <mxRectangle width="24" height="47" as="alternateBounds" />
          </mxGeometry>
        </mxCell>
        <mxCell id="GkfL3eOmTXCgE_zVLW1G-189" value="tourist_id" style="shape=partialRectangle;connectable=0;fillColor=none;top=0;left=0;bottom=0;right=0;align=left;spacingLeft=2;overflow=hidden;fontSize=11;" vertex="1" parent="GkfL3eOmTXCgE_zVLW1G-187">
          <mxGeometry x="24" width="157" height="47" as="geometry">
            <mxRectangle width="157" height="47" as="alternateBounds" />
          </mxGeometry>
        </mxCell>
        <mxCell id="GkfL3eOmTXCgE_zVLW1G-190" value="FK" style="shape=partialRectangle;connectable=0;fillColor=none;top=0;left=0;bottom=0;right=0;align=left;spacingLeft=2;overflow=hidden;fontSize=11;" vertex="1" parent="GkfL3eOmTXCgE_zVLW1G-187">
          <mxGeometry x="181" width="22" height="47" as="geometry">
            <mxRectangle width="22" height="47" as="alternateBounds" />
          </mxGeometry>
        </mxCell>
        <mxCell id="GkfL3eOmTXCgE_zVLW1G-191" style="shape=tableRow;horizontal=0;startSize=0;swimlaneHead=0;swimlaneBody=0;fillColor=none;collapsible=0;dropTarget=0;points=[[0,0.5],[1,0.5]];portConstraint=eastwest;top=0;left=0;right=0;bottom=0;" vertex="1" parent="GkfL3eOmTXCgE_zVLW1G-182">
          <mxGeometry y="119" width="203" height="47" as="geometry" />
        </mxCell>
        <mxCell id="GkfL3eOmTXCgE_zVLW1G-192" value="int" style="shape=partialRectangle;connectable=0;fillColor=none;top=0;left=0;bottom=0;right=0;align=left;spacingLeft=2;overflow=hidden;fontSize=11;" vertex="1" parent="GkfL3eOmTXCgE_zVLW1G-191">
          <mxGeometry width="24" height="47" as="geometry">
            <mxRectangle width="24" height="47" as="alternateBounds" />
          </mxGeometry>
        </mxCell>
        <mxCell id="GkfL3eOmTXCgE_zVLW1G-193" value="hotel_id" style="shape=partialRectangle;connectable=0;fillColor=none;top=0;left=0;bottom=0;right=0;align=left;spacingLeft=2;overflow=hidden;fontSize=11;" vertex="1" parent="GkfL3eOmTXCgE_zVLW1G-191">
          <mxGeometry x="24" width="157" height="47" as="geometry">
            <mxRectangle width="157" height="47" as="alternateBounds" />
          </mxGeometry>
        </mxCell>
        <mxCell id="GkfL3eOmTXCgE_zVLW1G-194" value="FK" style="shape=partialRectangle;connectable=0;fillColor=none;top=0;left=0;bottom=0;right=0;align=left;spacingLeft=2;overflow=hidden;fontSize=11;" vertex="1" parent="GkfL3eOmTXCgE_zVLW1G-191">
          <mxGeometry x="181" width="22" height="47" as="geometry">
            <mxRectangle width="22" height="47" as="alternateBounds" />
          </mxGeometry>
        </mxCell>
        <mxCell id="GkfL3eOmTXCgE_zVLW1G-195" style="shape=tableRow;horizontal=0;startSize=0;swimlaneHead=0;swimlaneBody=0;fillColor=none;collapsible=0;dropTarget=0;points=[[0,0.5],[1,0.5]];portConstraint=eastwest;top=0;left=0;right=0;bottom=0;" vertex="1" parent="GkfL3eOmTXCgE_zVLW1G-182">
          <mxGeometry y="166" width="203" height="47" as="geometry" />
        </mxCell>
        <mxCell id="GkfL3eOmTXCgE_zVLW1G-196" value="date" style="shape=partialRectangle;connectable=0;fillColor=none;top=0;left=0;bottom=0;right=0;align=left;spacingLeft=2;overflow=hidden;fontSize=11;" vertex="1" parent="GkfL3eOmTXCgE_zVLW1G-195">
          <mxGeometry width="24" height="47" as="geometry">
            <mxRectangle width="24" height="47" as="alternateBounds" />
          </mxGeometry>
        </mxCell>
        <mxCell id="GkfL3eOmTXCgE_zVLW1G-197" value="check_in" style="shape=partialRectangle;connectable=0;fillColor=none;top=0;left=0;bottom=0;right=0;align=left;spacingLeft=2;overflow=hidden;fontSize=11;" vertex="1" parent="GkfL3eOmTXCgE_zVLW1G-195">
          <mxGeometry x="24" width="157" height="47" as="geometry">
            <mxRectangle width="157" height="47" as="alternateBounds" />
          </mxGeometry>
        </mxCell>
        <mxCell id="GkfL3eOmTXCgE_zVLW1G-198" value="" style="shape=partialRectangle;connectable=0;fillColor=none;top=0;left=0;bottom=0;right=0;align=left;spacingLeft=2;overflow=hidden;fontSize=11;" vertex="1" parent="GkfL3eOmTXCgE_zVLW1G-195">
          <mxGeometry x="181" width="22" height="47" as="geometry">
            <mxRectangle width="22" height="47" as="alternateBounds" />
          </mxGeometry>
        </mxCell>
        <mxCell id="GkfL3eOmTXCgE_zVLW1G-199" value="tracks" style="curved=1;startArrow=ERmandOne;startSize=10;;endArrow=ERzeroToMany;endSize=10;;exitX=0;exitY=0.89;entryX=0.5;entryY=0;rounded=0;" edge="1" parent="1" source="GkfL3eOmTXCgE_zVLW1G-1" target="GkfL3eOmTXCgE_zVLW1G-18">
          <mxGeometry relative="1" as="geometry">
            <Array as="points">
              <mxPoint x="611" y="315" />
            </Array>
          </mxGeometry>
        </mxCell>
        <mxCell id="GkfL3eOmTXCgE_zVLW1G-200" value="earns" style="curved=1;startArrow=ERmandOne;startSize=10;;endArrow=ERzeroToMany;endSize=10;;exitX=1;exitY=0.81;entryX=0.5;entryY=0;rounded=0;" edge="1" parent="1" source="GkfL3eOmTXCgE_zVLW1G-1" target="GkfL3eOmTXCgE_zVLW1G-60">
          <mxGeometry relative="1" as="geometry">
            <Array as="points">
              <mxPoint x="1063" y="315" />
            </Array>
          </mxGeometry>
        </mxCell>
        <mxCell id="GkfL3eOmTXCgE_zVLW1G-201" value="awards" style="curved=1;startArrow=ERzeroToMany;startSize=10;;endArrow=ERmandOne;endSize=10;;exitX=0.5;exitY=1;entryX=0.5;entryY=0;rounded=0;" edge="1" parent="1" source="GkfL3eOmTXCgE_zVLW1G-60" target="GkfL3eOmTXCgE_zVLW1G-43">
          <mxGeometry relative="1" as="geometry">
            <Array as="points" />
          </mxGeometry>
        </mxCell>
        <mxCell id="GkfL3eOmTXCgE_zVLW1G-202" value="contains" style="curved=1;startArrow=ERmandOne;startSize=10;;endArrow=ERzeroToMany;endSize=10;;exitX=0.5;exitY=1;entryX=0.12;entryY=0;rounded=0;" edge="1" parent="1" source="GkfL3eOmTXCgE_zVLW1G-77" target="GkfL3eOmTXCgE_zVLW1G-102">
          <mxGeometry relative="1" as="geometry">
            <Array as="points">
              <mxPoint x="486" y="1118" />
            </Array>
          </mxGeometry>
        </mxCell>
        <mxCell id="GkfL3eOmTXCgE_zVLW1G-203" value="located in" style="curved=1;startArrow=ERmandOne;startSize=10;;endArrow=ERzeroToMany;endSize=10;;exitX=0.5;exitY=1;entryX=0.5;entryY=0;rounded=0;" edge="1" parent="1" source="GkfL3eOmTXCgE_zVLW1G-135" target="GkfL3eOmTXCgE_zVLW1G-144">
          <mxGeometry relative="1" as="geometry">
            <Array as="points" />
          </mxGeometry>
        </mxCell>
        <mxCell id="GkfL3eOmTXCgE_zVLW1G-204" value="makes" style="curved=1;startArrow=ERmandOne;startSize=10;;endArrow=ERzeroToMany;endSize=10;;exitX=0.5;exitY=1;entryX=0.98;entryY=0;rounded=0;" edge="1" parent="1" source="GkfL3eOmTXCgE_zVLW1G-165" target="GkfL3eOmTXCgE_zVLW1G-182">
          <mxGeometry relative="1" as="geometry">
            <Array as="points">
              <mxPoint x="2050" y="686" />
            </Array>
          </mxGeometry>
        </mxCell>
        <mxCell id="GkfL3eOmTXCgE_zVLW1G-205" value="booked" style="curved=1;startArrow=ERmandOne;startSize=10;;endArrow=ERzeroToMany;endSize=10;;exitX=0.5;exitY=1;entryX=0.02;entryY=0;rounded=0;" edge="1" parent="1" source="GkfL3eOmTXCgE_zVLW1G-144" target="GkfL3eOmTXCgE_zVLW1G-182">
          <mxGeometry relative="1" as="geometry">
            <Array as="points">
              <mxPoint x="1686" y="686" />
            </Array>
          </mxGeometry>
        </mxCell>
        <mxCell id="GkfL3eOmTXCgE_zVLW1G-206" value="current level" style="curved=1;startArrow=ERzeroToMany;startSize=10;;endArrow=ERmandOne;endSize=10;;exitX=0.12;exitY=1;entryX=0.5;entryY=0;rounded=0;" edge="1" parent="1" source="GkfL3eOmTXCgE_zVLW1G-18" target="GkfL3eOmTXCgE_zVLW1G-77">
          <mxGeometry relative="1" as="geometry">
            <Array as="points">
              <mxPoint x="486" y="716" />
            </Array>
          </mxGeometry>
        </mxCell>
        <mxCell id="GkfL3eOmTXCgE_zVLW1G-207" value="current task" style="curved=1;startArrow=ERzeroToMany;startSize=10;;endArrow=ERmandOne;endSize=10;;exitX=0.88;exitY=1;entryX=0.88;entryY=0;rounded=0;" edge="1" parent="1" source="GkfL3eOmTXCgE_zVLW1G-18" target="GkfL3eOmTXCgE_zVLW1G-102">
          <mxGeometry relative="1" as="geometry">
            <Array as="points">
              <mxPoint x="737" y="716" />
              <mxPoint x="737" y="1118" />
            </Array>
          </mxGeometry>
        </mxCell>
      </root>
    </mxGraphModel>
  </diagram>
  <diagram id="rK6rC74-HbYNTUL4GR71" name="Class diagram">
    <mxGraphModel dx="1109" dy="644" grid="1" gridSize="10" guides="1" tooltips="1" connect="1" arrows="1" fold="1" page="1" pageScale="1" pageWidth="1169" pageHeight="827" math="0" shadow="0">
      <root>
        <mxCell id="0" />
        <mxCell id="1" parent="0" />
        <mxCell id="OM_Ybl0jU3HfOn36--Mo-2" value="User" style="swimlane;fontStyle=1;align=center;verticalAlign=top;childLayout=stackLayout;horizontal=1;startSize=30.93534952799479;horizontalStack=0;resizeParent=1;resizeParentMax=0;resizeLast=0;collapsible=0;marginBottom=0;" vertex="1" parent="1">
          <mxGeometry x="189" y="20" width="169" height="231.9353495279948" as="geometry" />
        </mxCell>
        <mxCell id="OM_Ybl0jU3HfOn36--Mo-3" value="+int id" style="text;strokeColor=none;fillColor=none;align=left;verticalAlign=top;spacingLeft=4;spacingRight=4;overflow=hidden;rotatable=0;points=[[0,0.5],[1,0.5]];portConstraint=eastwest;" vertex="1" parent="OM_Ybl0jU3HfOn36--Mo-2">
          <mxGeometry y="30.93534952799479" width="169" height="31" as="geometry" />
        </mxCell>
        <mxCell id="OM_Ybl0jU3HfOn36--Mo-4" value="+string name" style="text;strokeColor=none;fillColor=none;align=left;verticalAlign=top;spacingLeft=4;spacingRight=4;overflow=hidden;rotatable=0;points=[[0,0.5],[1,0.5]];portConstraint=eastwest;" vertex="1" parent="OM_Ybl0jU3HfOn36--Mo-2">
          <mxGeometry y="61.93534952799479" width="169" height="31" as="geometry" />
        </mxCell>
        <mxCell id="OM_Ybl0jU3HfOn36--Mo-5" value="+string email" style="text;strokeColor=none;fillColor=none;align=left;verticalAlign=top;spacingLeft=4;spacingRight=4;overflow=hidden;rotatable=0;points=[[0,0.5],[1,0.5]];portConstraint=eastwest;" vertex="1" parent="OM_Ybl0jU3HfOn36--Mo-2">
          <mxGeometry y="92.93534952799479" width="169" height="31" as="geometry" />
        </mxCell>
        <mxCell id="OM_Ybl0jU3HfOn36--Mo-6" value="+string password" style="text;strokeColor=none;fillColor=none;align=left;verticalAlign=top;spacingLeft=4;spacingRight=4;overflow=hidden;rotatable=0;points=[[0,0.5],[1,0.5]];portConstraint=eastwest;" vertex="1" parent="OM_Ybl0jU3HfOn36--Mo-2">
          <mxGeometry y="123.93534952799479" width="169" height="31" as="geometry" />
        </mxCell>
        <mxCell id="OM_Ybl0jU3HfOn36--Mo-7" value="+Date created_at" style="text;strokeColor=none;fillColor=none;align=left;verticalAlign=top;spacingLeft=4;spacingRight=4;overflow=hidden;rotatable=0;points=[[0,0.5],[1,0.5]];portConstraint=eastwest;" vertex="1" parent="OM_Ybl0jU3HfOn36--Mo-2">
          <mxGeometry y="154.9353495279948" width="169" height="31" as="geometry" />
        </mxCell>
        <mxCell id="OM_Ybl0jU3HfOn36--Mo-8" value="+Date updated_at" style="text;strokeColor=none;fillColor=none;align=left;verticalAlign=top;spacingLeft=4;spacingRight=4;overflow=hidden;rotatable=0;points=[[0,0.5],[1,0.5]];portConstraint=eastwest;" vertex="1" parent="OM_Ybl0jU3HfOn36--Mo-2">
          <mxGeometry y="185.9353495279948" width="169" height="31" as="geometry" />
        </mxCell>
        <mxCell id="OM_Ybl0jU3HfOn36--Mo-9" style="line;strokeWidth=1;fillColor=none;align=left;verticalAlign=middle;spacingTop=-1;spacingLeft=3;spacingRight=3;rotatable=0;labelPosition=right;points=[];portConstraint=eastwest;strokeColor=inherit;" vertex="1" parent="OM_Ybl0jU3HfOn36--Mo-2">
          <mxGeometry y="216.9353495279948" width="169" height="15" as="geometry" />
        </mxCell>
        <mxCell id="OM_Ybl0jU3HfOn36--Mo-10" value="PlayerProgress" style="swimlane;fontStyle=1;align=center;verticalAlign=top;childLayout=stackLayout;horizontal=1;startSize=30.93534952799479;horizontalStack=0;resizeParent=1;resizeParentMax=0;resizeLast=0;collapsible=0;marginBottom=0;" vertex="1" parent="1">
          <mxGeometry x="20" y="326" width="224" height="231.9353495279948" as="geometry" />
        </mxCell>
        <mxCell id="OM_Ybl0jU3HfOn36--Mo-11" value="+int id" style="text;strokeColor=none;fillColor=none;align=left;verticalAlign=top;spacingLeft=4;spacingRight=4;overflow=hidden;rotatable=0;points=[[0,0.5],[1,0.5]];portConstraint=eastwest;" vertex="1" parent="OM_Ybl0jU3HfOn36--Mo-10">
          <mxGeometry y="30.93534952799479" width="224" height="31" as="geometry" />
        </mxCell>
        <mxCell id="OM_Ybl0jU3HfOn36--Mo-12" value="+int player_id" style="text;strokeColor=none;fillColor=none;align=left;verticalAlign=top;spacingLeft=4;spacingRight=4;overflow=hidden;rotatable=0;points=[[0,0.5],[1,0.5]];portConstraint=eastwest;" vertex="1" parent="OM_Ybl0jU3HfOn36--Mo-10">
          <mxGeometry y="61.93534952799479" width="224" height="31" as="geometry" />
        </mxCell>
        <mxCell id="OM_Ybl0jU3HfOn36--Mo-13" value="+int highest_level" style="text;strokeColor=none;fillColor=none;align=left;verticalAlign=top;spacingLeft=4;spacingRight=4;overflow=hidden;rotatable=0;points=[[0,0.5],[1,0.5]];portConstraint=eastwest;" vertex="1" parent="OM_Ybl0jU3HfOn36--Mo-10">
          <mxGeometry y="92.93534952799479" width="224" height="31" as="geometry" />
        </mxCell>
        <mxCell id="OM_Ybl0jU3HfOn36--Mo-14" value="+int current_level" style="text;strokeColor=none;fillColor=none;align=left;verticalAlign=top;spacingLeft=4;spacingRight=4;overflow=hidden;rotatable=0;points=[[0,0.5],[1,0.5]];portConstraint=eastwest;" vertex="1" parent="OM_Ybl0jU3HfOn36--Mo-10">
          <mxGeometry y="123.93534952799479" width="224" height="31" as="geometry" />
        </mxCell>
        <mxCell id="OM_Ybl0jU3HfOn36--Mo-15" value="+int current_task_id" style="text;strokeColor=none;fillColor=none;align=left;verticalAlign=top;spacingLeft=4;spacingRight=4;overflow=hidden;rotatable=0;points=[[0,0.5],[1,0.5]];portConstraint=eastwest;" vertex="1" parent="OM_Ybl0jU3HfOn36--Mo-10">
          <mxGeometry y="154.9353495279948" width="224" height="31" as="geometry" />
        </mxCell>
        <mxCell id="OM_Ybl0jU3HfOn36--Mo-16" value="+int attempts_left" style="text;strokeColor=none;fillColor=none;align=left;verticalAlign=top;spacingLeft=4;spacingRight=4;overflow=hidden;rotatable=0;points=[[0,0.5],[1,0.5]];portConstraint=eastwest;" vertex="1" parent="OM_Ybl0jU3HfOn36--Mo-10">
          <mxGeometry y="185.9353495279948" width="224" height="31" as="geometry" />
        </mxCell>
        <mxCell id="OM_Ybl0jU3HfOn36--Mo-17" style="line;strokeWidth=1;fillColor=none;align=left;verticalAlign=middle;spacingTop=-1;spacingLeft=3;spacingRight=3;rotatable=0;labelPosition=right;points=[];portConstraint=eastwest;strokeColor=inherit;" vertex="1" parent="OM_Ybl0jU3HfOn36--Mo-10">
          <mxGeometry y="216.9353495279948" width="224" height="15" as="geometry" />
        </mxCell>
        <mxCell id="OM_Ybl0jU3HfOn36--Mo-18" value="Achievement" style="swimlane;fontStyle=1;align=center;verticalAlign=top;childLayout=stackLayout;horizontal=1;startSize=32.001993032602165;horizontalStack=0;resizeParent=1;resizeParentMax=0;resizeLast=0;collapsible=0;marginBottom=0;" vertex="1" parent="1">
          <mxGeometry x="306" y="612" width="221" height="208.00199303260217" as="geometry" />
        </mxCell>
        <mxCell id="OM_Ybl0jU3HfOn36--Mo-19" value="+int id" style="text;strokeColor=none;fillColor=none;align=left;verticalAlign=top;spacingLeft=4;spacingRight=4;overflow=hidden;rotatable=0;points=[[0,0.5],[1,0.5]];portConstraint=eastwest;" vertex="1" parent="OM_Ybl0jU3HfOn36--Mo-18">
          <mxGeometry y="32.001993032602165" width="221" height="32" as="geometry" />
        </mxCell>
        <mxCell id="OM_Ybl0jU3HfOn36--Mo-20" value="+string name" style="text;strokeColor=none;fillColor=none;align=left;verticalAlign=top;spacingLeft=4;spacingRight=4;overflow=hidden;rotatable=0;points=[[0,0.5],[1,0.5]];portConstraint=eastwest;" vertex="1" parent="OM_Ybl0jU3HfOn36--Mo-18">
          <mxGeometry y="64.00199303260217" width="221" height="32" as="geometry" />
        </mxCell>
        <mxCell id="OM_Ybl0jU3HfOn36--Mo-21" value="+string description" style="text;strokeColor=none;fillColor=none;align=left;verticalAlign=top;spacingLeft=4;spacingRight=4;overflow=hidden;rotatable=0;points=[[0,0.5],[1,0.5]];portConstraint=eastwest;" vertex="1" parent="OM_Ybl0jU3HfOn36--Mo-18">
          <mxGeometry y="96.00199303260217" width="221" height="32" as="geometry" />
        </mxCell>
        <mxCell id="OM_Ybl0jU3HfOn36--Mo-22" value="+string badge_image" style="text;strokeColor=none;fillColor=none;align=left;verticalAlign=top;spacingLeft=4;spacingRight=4;overflow=hidden;rotatable=0;points=[[0,0.5],[1,0.5]];portConstraint=eastwest;" vertex="1" parent="OM_Ybl0jU3HfOn36--Mo-18">
          <mxGeometry y="128.00199303260217" width="221" height="32" as="geometry" />
        </mxCell>
        <mxCell id="OM_Ybl0jU3HfOn36--Mo-23" value="+Date created_at" style="text;strokeColor=none;fillColor=none;align=left;verticalAlign=top;spacingLeft=4;spacingRight=4;overflow=hidden;rotatable=0;points=[[0,0.5],[1,0.5]];portConstraint=eastwest;" vertex="1" parent="OM_Ybl0jU3HfOn36--Mo-18">
          <mxGeometry y="160.00199303260217" width="221" height="32" as="geometry" />
        </mxCell>
        <mxCell id="OM_Ybl0jU3HfOn36--Mo-24" style="line;strokeWidth=1;fillColor=none;align=left;verticalAlign=middle;spacingTop=-1;spacingLeft=3;spacingRight=3;rotatable=0;labelPosition=right;points=[];portConstraint=eastwest;strokeColor=inherit;" vertex="1" parent="OM_Ybl0jU3HfOn36--Mo-18">
          <mxGeometry y="192.00199303260217" width="221" height="16" as="geometry" />
        </mxCell>
        <mxCell id="OM_Ybl0jU3HfOn36--Mo-25" value="PlayerAchievement" style="swimlane;fontStyle=1;align=center;verticalAlign=top;childLayout=stackLayout;horizontal=1;startSize=33.45650967684659;horizontalStack=0;resizeParent=1;resizeParentMax=0;resizeLast=0;collapsible=0;marginBottom=0;" vertex="1" parent="1">
          <mxGeometry x="294" y="350" width="243" height="182.4565096768466" as="geometry" />
        </mxCell>
        <mxCell id="OM_Ybl0jU3HfOn36--Mo-26" value="+int id" style="text;strokeColor=none;fillColor=none;align=left;verticalAlign=top;spacingLeft=4;spacingRight=4;overflow=hidden;rotatable=0;points=[[0,0.5],[1,0.5]];portConstraint=eastwest;" vertex="1" parent="OM_Ybl0jU3HfOn36--Mo-25">
          <mxGeometry y="33.45650967684659" width="243" height="33" as="geometry" />
        </mxCell>
        <mxCell id="OM_Ybl0jU3HfOn36--Mo-27" value="+int user_id" style="text;strokeColor=none;fillColor=none;align=left;verticalAlign=top;spacingLeft=4;spacingRight=4;overflow=hidden;rotatable=0;points=[[0,0.5],[1,0.5]];portConstraint=eastwest;" vertex="1" parent="OM_Ybl0jU3HfOn36--Mo-25">
          <mxGeometry y="66.4565096768466" width="243" height="33" as="geometry" />
        </mxCell>
        <mxCell id="OM_Ybl0jU3HfOn36--Mo-28" value="+int achievement_id" style="text;strokeColor=none;fillColor=none;align=left;verticalAlign=top;spacingLeft=4;spacingRight=4;overflow=hidden;rotatable=0;points=[[0,0.5],[1,0.5]];portConstraint=eastwest;" vertex="1" parent="OM_Ybl0jU3HfOn36--Mo-25">
          <mxGeometry y="99.4565096768466" width="243" height="33" as="geometry" />
        </mxCell>
        <mxCell id="OM_Ybl0jU3HfOn36--Mo-29" value="+Date earned_at" style="text;strokeColor=none;fillColor=none;align=left;verticalAlign=top;spacingLeft=4;spacingRight=4;overflow=hidden;rotatable=0;points=[[0,0.5],[1,0.5]];portConstraint=eastwest;" vertex="1" parent="OM_Ybl0jU3HfOn36--Mo-25">
          <mxGeometry y="132.4565096768466" width="243" height="33" as="geometry" />
        </mxCell>
        <mxCell id="OM_Ybl0jU3HfOn36--Mo-30" style="line;strokeWidth=1;fillColor=none;align=left;verticalAlign=middle;spacingTop=-1;spacingLeft=3;spacingRight=3;rotatable=0;labelPosition=right;points=[];portConstraint=eastwest;strokeColor=inherit;" vertex="1" parent="OM_Ybl0jU3HfOn36--Mo-25">
          <mxGeometry y="165.4565096768466" width="243" height="17" as="geometry" />
        </mxCell>
        <mxCell id="OM_Ybl0jU3HfOn36--Mo-31" value="Level" style="swimlane;fontStyle=1;align=center;verticalAlign=top;childLayout=stackLayout;horizontal=1;startSize=30.93534952799479;horizontalStack=0;resizeParent=1;resizeParentMax=0;resizeLast=0;collapsible=0;marginBottom=0;" vertex="1" parent="1">
          <mxGeometry x="601" y="20" width="202" height="231.9353495279948" as="geometry" />
        </mxCell>
        <mxCell id="OM_Ybl0jU3HfOn36--Mo-32" value="+int id" style="text;strokeColor=none;fillColor=none;align=left;verticalAlign=top;spacingLeft=4;spacingRight=4;overflow=hidden;rotatable=0;points=[[0,0.5],[1,0.5]];portConstraint=eastwest;" vertex="1" parent="OM_Ybl0jU3HfOn36--Mo-31">
          <mxGeometry y="30.93534952799479" width="202" height="31" as="geometry" />
        </mxCell>
        <mxCell id="OM_Ybl0jU3HfOn36--Mo-33" value="+string province" style="text;strokeColor=none;fillColor=none;align=left;verticalAlign=top;spacingLeft=4;spacingRight=4;overflow=hidden;rotatable=0;points=[[0,0.5],[1,0.5]];portConstraint=eastwest;" vertex="1" parent="OM_Ybl0jU3HfOn36--Mo-31">
          <mxGeometry y="61.93534952799479" width="202" height="31" as="geometry" />
        </mxCell>
        <mxCell id="OM_Ybl0jU3HfOn36--Mo-34" value="+string story" style="text;strokeColor=none;fillColor=none;align=left;verticalAlign=top;spacingLeft=4;spacingRight=4;overflow=hidden;rotatable=0;points=[[0,0.5],[1,0.5]];portConstraint=eastwest;" vertex="1" parent="OM_Ybl0jU3HfOn36--Mo-31">
          <mxGeometry y="92.93534952799479" width="202" height="31" as="geometry" />
        </mxCell>
        <mxCell id="OM_Ybl0jU3HfOn36--Mo-35" value="+string dialogue" style="text;strokeColor=none;fillColor=none;align=left;verticalAlign=top;spacingLeft=4;spacingRight=4;overflow=hidden;rotatable=0;points=[[0,0.5],[1,0.5]];portConstraint=eastwest;" vertex="1" parent="OM_Ybl0jU3HfOn36--Mo-31">
          <mxGeometry y="123.93534952799479" width="202" height="31" as="geometry" />
        </mxCell>
        <mxCell id="OM_Ybl0jU3HfOn36--Mo-36" value="+string reward" style="text;strokeColor=none;fillColor=none;align=left;verticalAlign=top;spacingLeft=4;spacingRight=4;overflow=hidden;rotatable=0;points=[[0,0.5],[1,0.5]];portConstraint=eastwest;" vertex="1" parent="OM_Ybl0jU3HfOn36--Mo-31">
          <mxGeometry y="154.9353495279948" width="202" height="31" as="geometry" />
        </mxCell>
        <mxCell id="OM_Ybl0jU3HfOn36--Mo-37" value="+string unlocked_next" style="text;strokeColor=none;fillColor=none;align=left;verticalAlign=top;spacingLeft=4;spacingRight=4;overflow=hidden;rotatable=0;points=[[0,0.5],[1,0.5]];portConstraint=eastwest;" vertex="1" parent="OM_Ybl0jU3HfOn36--Mo-31">
          <mxGeometry y="185.9353495279948" width="202" height="31" as="geometry" />
        </mxCell>
        <mxCell id="OM_Ybl0jU3HfOn36--Mo-38" style="line;strokeWidth=1;fillColor=none;align=left;verticalAlign=middle;spacingTop=-1;spacingLeft=3;spacingRight=3;rotatable=0;labelPosition=right;points=[];portConstraint=eastwest;strokeColor=inherit;" vertex="1" parent="OM_Ybl0jU3HfOn36--Mo-31">
          <mxGeometry y="216.9353495279948" width="202" height="15" as="geometry" />
        </mxCell>
        <mxCell id="OM_Ybl0jU3HfOn36--Mo-39" value="LevelTask" style="swimlane;fontStyle=1;align=center;verticalAlign=top;childLayout=stackLayout;horizontal=1;startSize=29.475733706825658;horizontalStack=0;resizeParent=1;resizeParentMax=0;resizeLast=0;collapsible=0;marginBottom=0;" vertex="1" parent="1">
          <mxGeometry x="588" y="332" width="229" height="276.4757337068256" as="geometry" />
        </mxCell>
        <mxCell id="OM_Ybl0jU3HfOn36--Mo-40" value="+int id" style="text;strokeColor=none;fillColor=none;align=left;verticalAlign=top;spacingLeft=4;spacingRight=4;overflow=hidden;rotatable=0;points=[[0,0.5],[1,0.5]];portConstraint=eastwest;" vertex="1" parent="OM_Ybl0jU3HfOn36--Mo-39">
          <mxGeometry y="29.475733706825658" width="229" height="29" as="geometry" />
        </mxCell>
        <mxCell id="OM_Ybl0jU3HfOn36--Mo-41" value="+int level_id" style="text;strokeColor=none;fillColor=none;align=left;verticalAlign=top;spacingLeft=4;spacingRight=4;overflow=hidden;rotatable=0;points=[[0,0.5],[1,0.5]];portConstraint=eastwest;" vertex="1" parent="OM_Ybl0jU3HfOn36--Mo-39">
          <mxGeometry y="58.47573370682566" width="229" height="29" as="geometry" />
        </mxCell>
        <mxCell id="OM_Ybl0jU3HfOn36--Mo-42" value="+string introduction" style="text;strokeColor=none;fillColor=none;align=left;verticalAlign=top;spacingLeft=4;spacingRight=4;overflow=hidden;rotatable=0;points=[[0,0.5],[1,0.5]];portConstraint=eastwest;" vertex="1" parent="OM_Ybl0jU3HfOn36--Mo-39">
          <mxGeometry y="87.47573370682565" width="229" height="29" as="geometry" />
        </mxCell>
        <mxCell id="OM_Ybl0jU3HfOn36--Mo-43" value="+string reference_table" style="text;strokeColor=none;fillColor=none;align=left;verticalAlign=top;spacingLeft=4;spacingRight=4;overflow=hidden;rotatable=0;points=[[0,0.5],[1,0.5]];portConstraint=eastwest;" vertex="1" parent="OM_Ybl0jU3HfOn36--Mo-39">
          <mxGeometry y="116.47573370682565" width="229" height="29" as="geometry" />
        </mxCell>
        <mxCell id="OM_Ybl0jU3HfOn36--Mo-44" value="+string task" style="text;strokeColor=none;fillColor=none;align=left;verticalAlign=top;spacingLeft=4;spacingRight=4;overflow=hidden;rotatable=0;points=[[0,0.5],[1,0.5]];portConstraint=eastwest;" vertex="1" parent="OM_Ybl0jU3HfOn36--Mo-39">
          <mxGeometry y="145.47573370682565" width="229" height="29" as="geometry" />
        </mxCell>
        <mxCell id="OM_Ybl0jU3HfOn36--Mo-45" value="+string expected_query" style="text;strokeColor=none;fillColor=none;align=left;verticalAlign=top;spacingLeft=4;spacingRight=4;overflow=hidden;rotatable=0;points=[[0,0.5],[1,0.5]];portConstraint=eastwest;" vertex="1" parent="OM_Ybl0jU3HfOn36--Mo-39">
          <mxGeometry y="174.47573370682565" width="229" height="29" as="geometry" />
        </mxCell>
        <mxCell id="OM_Ybl0jU3HfOn36--Mo-46" value="+string clue" style="text;strokeColor=none;fillColor=none;align=left;verticalAlign=top;spacingLeft=4;spacingRight=4;overflow=hidden;rotatable=0;points=[[0,0.5],[1,0.5]];portConstraint=eastwest;" vertex="1" parent="OM_Ybl0jU3HfOn36--Mo-39">
          <mxGeometry y="203.47573370682565" width="229" height="29" as="geometry" />
        </mxCell>
        <mxCell id="OM_Ybl0jU3HfOn36--Mo-47" value="+string help" style="text;strokeColor=none;fillColor=none;align=left;verticalAlign=top;spacingLeft=4;spacingRight=4;overflow=hidden;rotatable=0;points=[[0,0.5],[1,0.5]];portConstraint=eastwest;" vertex="1" parent="OM_Ybl0jU3HfOn36--Mo-39">
          <mxGeometry y="232.47573370682565" width="229" height="29" as="geometry" />
        </mxCell>
        <mxCell id="OM_Ybl0jU3HfOn36--Mo-48" style="line;strokeWidth=1;fillColor=none;align=left;verticalAlign=middle;spacingTop=-1;spacingLeft=3;spacingRight=3;rotatable=0;labelPosition=right;points=[];portConstraint=eastwest;strokeColor=inherit;" vertex="1" parent="OM_Ybl0jU3HfOn36--Mo-39">
          <mxGeometry y="261.4757337068256" width="229" height="15" as="geometry" />
        </mxCell>
        <mxCell id="OM_Ybl0jU3HfOn36--Mo-49" value="Province" style="swimlane;fontStyle=1;align=center;verticalAlign=top;childLayout=stackLayout;horizontal=1;startSize=38.858995710100444;horizontalStack=0;resizeParent=1;resizeParentMax=0;resizeLast=0;collapsible=0;marginBottom=0;" vertex="1" parent="1">
          <mxGeometry x="920" y="20" width="173" height="135.85899571010043" as="geometry" />
        </mxCell>
        <mxCell id="OM_Ybl0jU3HfOn36--Mo-50" value="+int province_id" style="text;strokeColor=none;fillColor=none;align=left;verticalAlign=top;spacingLeft=4;spacingRight=4;overflow=hidden;rotatable=0;points=[[0,0.5],[1,0.5]];portConstraint=eastwest;" vertex="1" parent="OM_Ybl0jU3HfOn36--Mo-49">
          <mxGeometry y="38.858995710100444" width="173" height="39" as="geometry" />
        </mxCell>
        <mxCell id="OM_Ybl0jU3HfOn36--Mo-51" value="+string name" style="text;strokeColor=none;fillColor=none;align=left;verticalAlign=top;spacingLeft=4;spacingRight=4;overflow=hidden;rotatable=0;points=[[0,0.5],[1,0.5]];portConstraint=eastwest;" vertex="1" parent="OM_Ybl0jU3HfOn36--Mo-49">
          <mxGeometry y="77.85899571010044" width="173" height="39" as="geometry" />
        </mxCell>
        <mxCell id="OM_Ybl0jU3HfOn36--Mo-52" style="line;strokeWidth=1;fillColor=none;align=left;verticalAlign=middle;spacingTop=-1;spacingLeft=3;spacingRight=3;rotatable=0;labelPosition=right;points=[];portConstraint=eastwest;strokeColor=inherit;" vertex="1" parent="OM_Ybl0jU3HfOn36--Mo-49">
          <mxGeometry y="116.85899571010044" width="173" height="19" as="geometry" />
        </mxCell>
        <mxCell id="OM_Ybl0jU3HfOn36--Mo-53" value="Hotel" style="swimlane;fontStyle=1;align=center;verticalAlign=top;childLayout=stackLayout;horizontal=1;startSize=30.93534952799479;horizontalStack=0;resizeParent=1;resizeParentMax=0;resizeLast=0;collapsible=0;marginBottom=0;" vertex="1" parent="1">
          <mxGeometry x="920" y="182" width="167" height="231.9353495279948" as="geometry" />
        </mxCell>
        <mxCell id="OM_Ybl0jU3HfOn36--Mo-54" value="+int hotel_id" style="text;strokeColor=none;fillColor=none;align=left;verticalAlign=top;spacingLeft=4;spacingRight=4;overflow=hidden;rotatable=0;points=[[0,0.5],[1,0.5]];portConstraint=eastwest;" vertex="1" parent="OM_Ybl0jU3HfOn36--Mo-53">
          <mxGeometry y="30.93534952799479" width="167" height="31" as="geometry" />
        </mxCell>
        <mxCell id="OM_Ybl0jU3HfOn36--Mo-55" value="+string name" style="text;strokeColor=none;fillColor=none;align=left;verticalAlign=top;spacingLeft=4;spacingRight=4;overflow=hidden;rotatable=0;points=[[0,0.5],[1,0.5]];portConstraint=eastwest;" vertex="1" parent="OM_Ybl0jU3HfOn36--Mo-53">
          <mxGeometry y="61.93534952799479" width="167" height="31" as="geometry" />
        </mxCell>
        <mxCell id="OM_Ybl0jU3HfOn36--Mo-56" value="+string city" style="text;strokeColor=none;fillColor=none;align=left;verticalAlign=top;spacingLeft=4;spacingRight=4;overflow=hidden;rotatable=0;points=[[0,0.5],[1,0.5]];portConstraint=eastwest;" vertex="1" parent="OM_Ybl0jU3HfOn36--Mo-53">
          <mxGeometry y="92.93534952799479" width="167" height="31" as="geometry" />
        </mxCell>
        <mxCell id="OM_Ybl0jU3HfOn36--Mo-57" value="+int province_id" style="text;strokeColor=none;fillColor=none;align=left;verticalAlign=top;spacingLeft=4;spacingRight=4;overflow=hidden;rotatable=0;points=[[0,0.5],[1,0.5]];portConstraint=eastwest;" vertex="1" parent="OM_Ybl0jU3HfOn36--Mo-53">
          <mxGeometry y="123.93534952799479" width="167" height="31" as="geometry" />
        </mxCell>
        <mxCell id="OM_Ybl0jU3HfOn36--Mo-58" value="+decimal price" style="text;strokeColor=none;fillColor=none;align=left;verticalAlign=top;spacingLeft=4;spacingRight=4;overflow=hidden;rotatable=0;points=[[0,0.5],[1,0.5]];portConstraint=eastwest;" vertex="1" parent="OM_Ybl0jU3HfOn36--Mo-53">
          <mxGeometry y="154.9353495279948" width="167" height="31" as="geometry" />
        </mxCell>
        <mxCell id="OM_Ybl0jU3HfOn36--Mo-59" value="+string amenities" style="text;strokeColor=none;fillColor=none;align=left;verticalAlign=top;spacingLeft=4;spacingRight=4;overflow=hidden;rotatable=0;points=[[0,0.5],[1,0.5]];portConstraint=eastwest;" vertex="1" parent="OM_Ybl0jU3HfOn36--Mo-53">
          <mxGeometry y="185.9353495279948" width="167" height="31" as="geometry" />
        </mxCell>
        <mxCell id="OM_Ybl0jU3HfOn36--Mo-60" style="line;strokeWidth=1;fillColor=none;align=left;verticalAlign=middle;spacingTop=-1;spacingLeft=3;spacingRight=3;rotatable=0;labelPosition=right;points=[];portConstraint=eastwest;strokeColor=inherit;" vertex="1" parent="OM_Ybl0jU3HfOn36--Mo-53">
          <mxGeometry y="216.9353495279948" width="167" height="15" as="geometry" />
        </mxCell>
        <mxCell id="OM_Ybl0jU3HfOn36--Mo-61" value="Tourist" style="swimlane;fontStyle=1;align=center;verticalAlign=top;childLayout=stackLayout;horizontal=1;startSize=33.45650967684659;horizontalStack=0;resizeParent=1;resizeParentMax=0;resizeLast=0;collapsible=0;marginBottom=0;" vertex="1" parent="1">
          <mxGeometry x="920" y="426.0200000000001" width="158" height="182.4565096768466" as="geometry" />
        </mxCell>
        <mxCell id="OM_Ybl0jU3HfOn36--Mo-62" value="+int tourist_id" style="text;strokeColor=none;fillColor=none;align=left;verticalAlign=top;spacingLeft=4;spacingRight=4;overflow=hidden;rotatable=0;points=[[0,0.5],[1,0.5]];portConstraint=eastwest;" vertex="1" parent="OM_Ybl0jU3HfOn36--Mo-61">
          <mxGeometry y="33.45650967684659" width="158" height="33" as="geometry" />
        </mxCell>
        <mxCell id="OM_Ybl0jU3HfOn36--Mo-63" value="+string name" style="text;strokeColor=none;fillColor=none;align=left;verticalAlign=top;spacingLeft=4;spacingRight=4;overflow=hidden;rotatable=0;points=[[0,0.5],[1,0.5]];portConstraint=eastwest;" vertex="1" parent="OM_Ybl0jU3HfOn36--Mo-61">
          <mxGeometry y="66.4565096768466" width="158" height="33" as="geometry" />
        </mxCell>
        <mxCell id="OM_Ybl0jU3HfOn36--Mo-64" value="+string country" style="text;strokeColor=none;fillColor=none;align=left;verticalAlign=top;spacingLeft=4;spacingRight=4;overflow=hidden;rotatable=0;points=[[0,0.5],[1,0.5]];portConstraint=eastwest;" vertex="1" parent="OM_Ybl0jU3HfOn36--Mo-61">
          <mxGeometry y="99.4565096768466" width="158" height="33" as="geometry" />
        </mxCell>
        <mxCell id="OM_Ybl0jU3HfOn36--Mo-65" value="+int age" style="text;strokeColor=none;fillColor=none;align=left;verticalAlign=top;spacingLeft=4;spacingRight=4;overflow=hidden;rotatable=0;points=[[0,0.5],[1,0.5]];portConstraint=eastwest;" vertex="1" parent="OM_Ybl0jU3HfOn36--Mo-61">
          <mxGeometry y="132.4565096768466" width="158" height="33" as="geometry" />
        </mxCell>
        <mxCell id="OM_Ybl0jU3HfOn36--Mo-66" style="line;strokeWidth=1;fillColor=none;align=left;verticalAlign=middle;spacingTop=-1;spacingLeft=3;spacingRight=3;rotatable=0;labelPosition=right;points=[];portConstraint=eastwest;strokeColor=inherit;" vertex="1" parent="OM_Ybl0jU3HfOn36--Mo-61">
          <mxGeometry y="165.4565096768466" width="158" height="17" as="geometry" />
        </mxCell>
        <mxCell id="OM_Ybl0jU3HfOn36--Mo-67" value="Booking" style="swimlane;fontStyle=1;align=center;verticalAlign=top;childLayout=stackLayout;horizontal=1;startSize=33.45650967684659;horizontalStack=0;resizeParent=1;resizeParentMax=0;resizeLast=0;collapsible=0;marginBottom=0;" vertex="1" parent="1">
          <mxGeometry x="917.5" y="630" width="163" height="182.4565096768466" as="geometry" />
        </mxCell>
        <mxCell id="OM_Ybl0jU3HfOn36--Mo-68" value="+int booking_id" style="text;strokeColor=none;fillColor=none;align=left;verticalAlign=top;spacingLeft=4;spacingRight=4;overflow=hidden;rotatable=0;points=[[0,0.5],[1,0.5]];portConstraint=eastwest;" vertex="1" parent="OM_Ybl0jU3HfOn36--Mo-67">
          <mxGeometry y="33.45650967684659" width="163" height="33" as="geometry" />
        </mxCell>
        <mxCell id="OM_Ybl0jU3HfOn36--Mo-69" value="+int tourist_id" style="text;strokeColor=none;fillColor=none;align=left;verticalAlign=top;spacingLeft=4;spacingRight=4;overflow=hidden;rotatable=0;points=[[0,0.5],[1,0.5]];portConstraint=eastwest;" vertex="1" parent="OM_Ybl0jU3HfOn36--Mo-67">
          <mxGeometry y="66.4565096768466" width="163" height="33" as="geometry" />
        </mxCell>
        <mxCell id="OM_Ybl0jU3HfOn36--Mo-70" value="+int hotel_id" style="text;strokeColor=none;fillColor=none;align=left;verticalAlign=top;spacingLeft=4;spacingRight=4;overflow=hidden;rotatable=0;points=[[0,0.5],[1,0.5]];portConstraint=eastwest;" vertex="1" parent="OM_Ybl0jU3HfOn36--Mo-67">
          <mxGeometry y="99.4565096768466" width="163" height="33" as="geometry" />
        </mxCell>
        <mxCell id="OM_Ybl0jU3HfOn36--Mo-71" value="+Date check_in" style="text;strokeColor=none;fillColor=none;align=left;verticalAlign=top;spacingLeft=4;spacingRight=4;overflow=hidden;rotatable=0;points=[[0,0.5],[1,0.5]];portConstraint=eastwest;" vertex="1" parent="OM_Ybl0jU3HfOn36--Mo-67">
          <mxGeometry y="132.4565096768466" width="163" height="33" as="geometry" />
        </mxCell>
        <mxCell id="OM_Ybl0jU3HfOn36--Mo-72" style="line;strokeWidth=1;fillColor=none;align=left;verticalAlign=middle;spacingTop=-1;spacingLeft=3;spacingRight=3;rotatable=0;labelPosition=right;points=[];portConstraint=eastwest;strokeColor=inherit;" vertex="1" parent="OM_Ybl0jU3HfOn36--Mo-67">
          <mxGeometry y="165.4565096768466" width="163" height="17" as="geometry" />
        </mxCell>
        <mxCell id="OM_Ybl0jU3HfOn36--Mo-73" value="tracks" style="curved=1;startArrow=none;endArrow=open;endSize=12;exitX=0;exitY=0.89;entryX=0.5;entryY=0;rounded=0;" edge="1" parent="1" source="OM_Ybl0jU3HfOn36--Mo-2" target="OM_Ybl0jU3HfOn36--Mo-10">
          <mxGeometry relative="1" as="geometry">
            <Array as="points">
              <mxPoint x="132" y="296" />
            </Array>
          </mxGeometry>
        </mxCell>
        <mxCell id="OM_Ybl0jU3HfOn36--Mo-74" value="1" style="edgeLabel;resizable=0;labelBackgroundColor=none;fontSize=12;align=right;verticalAlign=top;" vertex="1" parent="OM_Ybl0jU3HfOn36--Mo-73">
          <mxGeometry x="-1" relative="1" as="geometry" />
        </mxCell>
        <mxCell id="OM_Ybl0jU3HfOn36--Mo-75" value="1..*" style="edgeLabel;resizable=0;labelBackgroundColor=none;fontSize=12;align=left;verticalAlign=bottom;" vertex="1" parent="OM_Ybl0jU3HfOn36--Mo-73">
          <mxGeometry x="1" relative="1" as="geometry" />
        </mxCell>
        <mxCell id="OM_Ybl0jU3HfOn36--Mo-76" value="earns" style="curved=1;startArrow=none;endArrow=open;endSize=12;exitX=1;exitY=0.89;entryX=0.5;entryY=0;rounded=0;" edge="1" parent="1" source="OM_Ybl0jU3HfOn36--Mo-2" target="OM_Ybl0jU3HfOn36--Mo-25">
          <mxGeometry relative="1" as="geometry">
            <Array as="points">
              <mxPoint x="416" y="296" />
            </Array>
          </mxGeometry>
        </mxCell>
        <mxCell id="OM_Ybl0jU3HfOn36--Mo-77" value="1" style="edgeLabel;resizable=0;labelBackgroundColor=none;fontSize=12;align=right;verticalAlign=top;" vertex="1" parent="OM_Ybl0jU3HfOn36--Mo-76">
          <mxGeometry x="-1" relative="1" as="geometry" />
        </mxCell>
        <mxCell id="OM_Ybl0jU3HfOn36--Mo-78" value="0..*" style="edgeLabel;resizable=0;labelBackgroundColor=none;fontSize=12;align=left;verticalAlign=bottom;" vertex="1" parent="OM_Ybl0jU3HfOn36--Mo-76">
          <mxGeometry x="1" relative="1" as="geometry" />
        </mxCell>
        <mxCell id="OM_Ybl0jU3HfOn36--Mo-79" value="awards" style="curved=1;startArrow=none;endArrow=open;endSize=12;exitX=0.5;exitY=1;entryX=0.5;entryY=0;rounded=0;" edge="1" parent="1" source="OM_Ybl0jU3HfOn36--Mo-25" target="OM_Ybl0jU3HfOn36--Mo-18">
          <mxGeometry relative="1" as="geometry">
            <Array as="points" />
          </mxGeometry>
        </mxCell>
        <mxCell id="OM_Ybl0jU3HfOn36--Mo-80" value="1" style="edgeLabel;resizable=0;labelBackgroundColor=none;fontSize=12;align=right;verticalAlign=top;" vertex="1" parent="OM_Ybl0jU3HfOn36--Mo-79">
          <mxGeometry x="-1" relative="1" as="geometry" />
        </mxCell>
        <mxCell id="OM_Ybl0jU3HfOn36--Mo-81" value="1" style="edgeLabel;resizable=0;labelBackgroundColor=none;fontSize=12;align=left;verticalAlign=bottom;" vertex="1" parent="OM_Ybl0jU3HfOn36--Mo-79">
          <mxGeometry x="1" relative="1" as="geometry" />
        </mxCell>
        <mxCell id="OM_Ybl0jU3HfOn36--Mo-82" value="conta*" style="curved=1;startArrow=none;endArrow=open;endSize=12;exitX=0.5;exitY=1;entryX=0.5;entryY=0;rounded=0;" edge="1" parent="1" source="OM_Ybl0jU3HfOn36--Mo-31" target="OM_Ybl0jU3HfOn36--Mo-39">
          <mxGeometry relative="1" as="geometry">
            <Array as="points" />
          </mxGeometry>
        </mxCell>
        <mxCell id="OM_Ybl0jU3HfOn36--Mo-83" value="1" style="edgeLabel;resizable=0;labelBackgroundColor=none;fontSize=12;align=right;verticalAlign=top;" vertex="1" parent="OM_Ybl0jU3HfOn36--Mo-82">
          <mxGeometry x="-1" relative="1" as="geometry" />
        </mxCell>
        <mxCell id="OM_Ybl0jU3HfOn36--Mo-84" value="0..*" style="edgeLabel;resizable=0;labelBackgroundColor=none;fontSize=12;align=left;verticalAlign=bottom;" vertex="1" parent="OM_Ybl0jU3HfOn36--Mo-82">
          <mxGeometry x="1" relative="1" as="geometry" />
        </mxCell>
      </root>
    </mxGraphModel>
  </diagram>
  <diagram id="JbT27I9_xtYTIl6_Aq3q" name="Page-4">
    <mxGraphModel dx="1663" dy="966" grid="1" gridSize="10" guides="1" tooltips="1" connect="1" arrows="1" fold="1" page="1" pageScale="1" pageWidth="1169" pageHeight="827" math="0" shadow="0">
      <root>
        <mxCell id="0" />
        <mxCell id="1" parent="0" />
        <mxCell id="pAGAtgQRdpjKwrO5XZOH-1" value="" style="rounded=1;whiteSpace=wrap;arcSize=50;strokeWidth=2;strokeColor=none;fillColor=none;" vertex="1" parent="1">
          <mxGeometry x="317" y="571" width="80" height="39" as="geometry" />
        </mxCell>
        <mxCell id="pAGAtgQRdpjKwrO5XZOH-4" value="Login / Authentication" style="ellipse;aspect=fixed;strokeWidth=2;whiteSpace=wrap;" vertex="1" parent="1">
          <mxGeometry x="457" y="60" width="176" height="176" as="geometry" />
        </mxCell>
        <mxCell id="pAGAtgQRdpjKwrO5XZOH-5" value="Play SQL Scenarios" style="ellipse;aspect=fixed;strokeWidth=2;whiteSpace=wrap;" vertex="1" parent="1">
          <mxGeometry x="471" y="286" width="148" height="148" as="geometry" />
        </mxCell>
        <mxCell id="pAGAtgQRdpjKwrO5XZOH-6" value="Submit SQL Query" style="ellipse;aspect=fixed;strokeWidth=2;whiteSpace=wrap;" vertex="1" parent="1">
          <mxGeometry x="689" y="124" width="143" height="143" as="geometry" />
        </mxCell>
        <mxCell id="pAGAtgQRdpjKwrO5XZOH-7" value="Request Hint" style="ellipse;aspect=fixed;strokeWidth=2;whiteSpace=wrap;" vertex="1" parent="1">
          <mxGeometry x="707" y="317" width="106" height="106" as="geometry" />
        </mxCell>
        <mxCell id="pAGAtgQRdpjKwrO5XZOH-8" value="View Progress" style="ellipse;aspect=fixed;strokeWidth=2;whiteSpace=wrap;" vertex="1" parent="1">
          <mxGeometry x="410" y="970" width="113" height="113" as="geometry" />
        </mxCell>
        <mxCell id="pAGAtgQRdpjKwrO5XZOH-9" value="View Leaderboard" style="ellipse;aspect=fixed;strokeWidth=2;whiteSpace=wrap;" vertex="1" parent="1">
          <mxGeometry x="489" y="490" width="144" height="144" as="geometry" />
        </mxCell>
        <mxCell id="pAGAtgQRdpjKwrO5XZOH-10" value="Earn Achievements" style="ellipse;aspect=fixed;strokeWidth=2;whiteSpace=wrap;" vertex="1" parent="1">
          <mxGeometry x="685" y="851" width="150" height="150" as="geometry" />
        </mxCell>
        <mxCell id="pAGAtgQRdpjKwrO5XZOH-11" value="Reset Database" style="ellipse;aspect=fixed;strokeWidth=2;whiteSpace=wrap;" vertex="1" parent="1">
          <mxGeometry x="698" y="630" width="124" height="124" as="geometry" />
        </mxCell>
        <mxCell id="pAGAtgQRdpjKwrO5XZOH-12" value="Provide Feedback" style="ellipse;aspect=fixed;strokeWidth=2;whiteSpace=wrap;" vertex="1" parent="1">
          <mxGeometry x="474" y="753" width="141" height="141" as="geometry" />
        </mxCell>
        <mxCell id="pAGAtgQRdpjKwrO5XZOH-16" value="" style="startArrow=none;endArrow=block;exitX=0.54;exitY=0.01;entryX=0;entryY=0.5;rounded=0;" edge="1" parent="1" source="pAGAtgQRdpjKwrO5XZOH-1" target="pAGAtgQRdpjKwrO5XZOH-4">
          <mxGeometry relative="1" as="geometry" />
        </mxCell>
        <mxCell id="pAGAtgQRdpjKwrO5XZOH-17" value="" style="startArrow=none;endArrow=block;exitX=0.58;exitY=0.01;entryX=0;entryY=0.5;rounded=0;" edge="1" parent="1" source="pAGAtgQRdpjKwrO5XZOH-1" target="pAGAtgQRdpjKwrO5XZOH-5">
          <mxGeometry relative="1" as="geometry" />
        </mxCell>
        <mxCell id="pAGAtgQRdpjKwrO5XZOH-18" value="" style="startArrow=none;endArrow=block;entryX=0.39;entryY=0;rounded=0;" edge="1" parent="1" source="pAGAtgQRdpjKwrO5XZOH-33" target="pAGAtgQRdpjKwrO5XZOH-8">
          <mxGeometry relative="1" as="geometry" />
        </mxCell>
        <mxCell id="pAGAtgQRdpjKwrO5XZOH-19" value="" style="curved=1;startArrow=none;endArrow=block;exitX=1;exitY=0.51;entryX=0;entryY=0.5;rounded=0;" edge="1" parent="1" source="pAGAtgQRdpjKwrO5XZOH-1" target="pAGAtgQRdpjKwrO5XZOH-9">
          <mxGeometry relative="1" as="geometry">
            <Array as="points" />
          </mxGeometry>
        </mxCell>
        <mxCell id="pAGAtgQRdpjKwrO5XZOH-20" value="" style="startArrow=none;endArrow=block;exitX=0.67;exitY=1.01;entryX=0.28;entryY=0;rounded=0;" edge="1" parent="1" source="pAGAtgQRdpjKwrO5XZOH-1" target="pAGAtgQRdpjKwrO5XZOH-10">
          <mxGeometry relative="1" as="geometry" />
        </mxCell>
        <mxCell id="pAGAtgQRdpjKwrO5XZOH-21" value="" style="startArrow=none;endArrow=block;exitX=0.64;exitY=1.01;entryX=0;entryY=0.63;rounded=0;" edge="1" parent="1" source="pAGAtgQRdpjKwrO5XZOH-1" target="pAGAtgQRdpjKwrO5XZOH-11">
          <mxGeometry relative="1" as="geometry" />
        </mxCell>
        <mxCell id="pAGAtgQRdpjKwrO5XZOH-22" value="" style="startArrow=none;endArrow=block;exitX=0.58;exitY=1.01;entryX=0;entryY=0.5;rounded=0;" edge="1" parent="1" source="pAGAtgQRdpjKwrO5XZOH-1" target="pAGAtgQRdpjKwrO5XZOH-12">
          <mxGeometry relative="1" as="geometry" />
        </mxCell>
        <mxCell id="pAGAtgQRdpjKwrO5XZOH-29" value="" style="dashed=1;dashPattern=2 3;startArrow=none;endArrow=block;exitX=0.85;exitY=0;entryX=0;entryY=0.5;rounded=0;" edge="1" parent="1" source="pAGAtgQRdpjKwrO5XZOH-5" target="pAGAtgQRdpjKwrO5XZOH-6">
          <mxGeometry relative="1" as="geometry" />
        </mxCell>
        <mxCell id="pAGAtgQRdpjKwrO5XZOH-30" value="" style="dashed=1;dashPattern=2 3;startArrow=none;endArrow=block;exitX=1;exitY=0.54;entryX=0;entryY=0.5;rounded=0;" edge="1" parent="1" source="pAGAtgQRdpjKwrO5XZOH-5" target="pAGAtgQRdpjKwrO5XZOH-7">
          <mxGeometry relative="1" as="geometry" />
        </mxCell>
        <mxCell id="pAGAtgQRdpjKwrO5XZOH-31" value="" style="dashed=1;dashPattern=2 3;startArrow=none;endArrow=block;exitX=1;exitY=0.5;entryX=0;entryY=0.87;rounded=0;" edge="1" parent="1" source="pAGAtgQRdpjKwrO5XZOH-8" target="pAGAtgQRdpjKwrO5XZOH-10">
          <mxGeometry relative="1" as="geometry" />
        </mxCell>
        <mxCell id="pAGAtgQRdpjKwrO5XZOH-32" value="" style="dashed=1;dashPattern=2 3;startArrow=none;endArrow=block;exitX=1;exitY=0.95;entryX=0.28;entryY=0;rounded=0;" edge="1" parent="1" source="pAGAtgQRdpjKwrO5XZOH-5" target="pAGAtgQRdpjKwrO5XZOH-11">
          <mxGeometry relative="1" as="geometry" />
        </mxCell>
        <mxCell id="pAGAtgQRdpjKwrO5XZOH-33" value="Learner" style="shape=umlActor;verticalLabelPosition=bottom;verticalAlign=top;html=1;outlineConnect=0;" vertex="1" parent="1">
          <mxGeometry x="224" y="470" width="173" height="231" as="geometry" />
        </mxCell>
      </root>
    </mxGraphModel>
  </diagram>
</mxfile>
